<?xml version="1.0" encoding="utf-8"?>
<!-- Generator: Adobe Illustrator 22.1.0, SVG Export Plug-In . SVG Version: 6.00 Build 0)  -->
<svg version="1.1" id="Layer_1" xmlns="http://www.w3.org/2000/svg" xmlns:xlink="http://www.w3.org/1999/xlink" x="0px" y="0px"
	 viewBox="0 0 200 200" style="enable-background:new 0 0 200 200;" xml:space="preserve">
<style type="text/css">
	.st0{fill:#7C3635;}
	.st1{fill:#D8D8D8;}
	.st2{fill:#EF0600;}
</style>
<title>client-message-btn-active</title>
<path class="st0" d="M56.4,45.7h93.2c14,0,25.4,11.4,25.4,25.4v50.3c0,14-11.4,25.4-25.4,25.4H56.4c-14,0-25.4-11.4-25.4-25.4V71.1
	C31.1,57.1,42.4,45.7,56.4,45.7z"/>
<polygon class="st0" points="148.7,138.1 173.1,162.5 115.1,138.6 "/>
<path class="st1" d="M50.4,37.5h93.2c14,0,25.4,11.4,25.4,25.4v50.3c0,14-11.4,25.4-25.4,25.4H50.4c-14,0-25.4-11.4-25.4-25.4V62.9
	C25,48.9,36.4,37.5,50.4,37.5z"/>
<polygon class="st1" points="51.3,130 26.9,154.3 84.9,130.5 "/>
<path class="st0" d="M63.4,58.4h80.3c1,0,1.9,0.8,1.9,1.9v1.3c0,1-0.8,1.9-1.9,1.9H63.4c-1,0-1.9-0.8-1.9-1.9v-1.3
	C61.5,59.2,62.4,58.4,63.4,58.4z"/>
<path class="st0" d="M95,75.3h48.7c1,0,1.9,0.8,1.9,1.9v1.3c0,1-0.8,1.9-1.9,1.9H95c-1,0-1.9-0.8-1.9-1.9v-1.3
	C93.2,76.1,94,75.3,95,75.3z"/>
<path class="st0" d="M95,90.5h48.7c1,0,1.9,0.8,1.9,1.9v1.3c0,1-0.8,1.9-1.9,1.9H95c-1,0-1.9-0.8-1.9-1.9v-1.3
	C93.2,91.4,94,90.5,95,90.5z"/>
<circle class="st2" cx="151.9" cy="55.5" r="17.8"/>
</svg>
