<?xml version="1.0" encoding="utf-8"?>
<!-- Generator: Adobe Illustrator 22.1.0, SVG Export Plug-In . SVG Version: 6.00 Build 0)  -->
<svg version="1.1" id="Layer_1" xmlns="http://www.w3.org/2000/svg" xmlns:xlink="http://www.w3.org/1999/xlink" x="0px" y="0px"
	 viewBox="0 0 200 200" style="enable-background:new 0 0 200 200;" xml:space="preserve">
<style type="text/css">
	.st0{fill:#831E19;}
	.st1{fill:#7C3635;}
	.st2{fill:#FFFFFF;}
	.st3{fill:#D8D8D8;}
</style>
<title>assets</title>
<path class="st0" d="M175,131.4v-17l-12.4-1.4c-1-4-2.6-7.8-4.7-11.3l7.8-9.7l-12-12l-9.7,7.8c-3.5-2.1-7.3-3.7-11.3-4.7l-1.4-12.4
	h-17l-1.4,12.4c-4,1-7.8,2.6-11.3,4.7L91.9,80l-12,12l7.8,9.7c-2.1,3.5-3.7,7.3-4.7,11.3l-12.4,1.4v17l12.4,1.4
	c1,4,2.6,7.8,4.7,11.3l-7.8,9.7l12,12l9.7-7.8c3.5,2.1,7.3,3.7,11.3,4.7l1.4,12.4h17l1.4-12.4c4-1,7.8-2.6,11.3-4.7l9.7,7.8l12-12
	l-7.8-9.7c2.1-3.5,3.7-7.3,4.7-11.3L175,131.4z M140.9,141.1c-10,10-26.2,10.1-36.2,0.1c-9-8.9-10.1-23.1-2.6-33.3
	c0.8-1.1,1.6-2,2.5-3c9.8-10.2,26.1-10.5,36.2-0.6c10.2,9.8,10.5,26.1,0.6,36.2C141.3,140.7,141.1,140.9,140.9,141.1z"/>
<path class="st1" d="M108.2,108.4c-8,8-8,21.1,0,29.1s21.1,8,29.1,0c8-8,8-21.1,0-29.1C129.3,100.3,116.3,100.3,108.2,108.4
	C108.2,108.4,108.2,108.4,108.2,108.4z M131.3,131.4c-4.7,4.7-12.2,4.7-16.9,0c-4.7-4.7-4.7-12.2,0-16.9c4.7-4.7,12.2-4.7,16.9,0
	c0,0,0,0,0,0C135.9,119.2,135.9,126.7,131.3,131.4C131.3,131.4,131.3,131.4,131.3,131.4z"/>
<path class="st2" d="M71.6,139.3l-1.5-13.5c-3.6-1-7-2.4-10.2-4.2L49.3,130l-15-15l8.5-10.6c-1.8-3.2-3.3-6.6-4.2-10.2L25,92.7V71.5
	L38.5,70c1-3.6,2.4-7,4.2-10.2l-8.5-10.6l15-15l10.6,8.5c3.2-1.8,6.6-3.3,10.2-4.2l1.5-13.5h21.3l1.5,13.5c3.6,1,7,2.4,10.2,4.2
	l10.6-8.5l15,15l-8.5,10.6c1.8,3.2,3.3,6.6,4.2,10.2l13.5,1.5v21.3l-13.5,1.5c-1,3.6-2.4,7-4.2,10.2l8.5,10.6l-15,15l-10.6-8.5
	c-3.2,1.8-6.6,3.3-10.2,4.2l-1.5,13.5H71.6z M82.2,56.6C68.2,56.6,56.8,68,56.7,82s11.4,25.5,25.4,25.5c14.1,0,25.5-11.4,25.5-25.4
	c0-6.8-2.7-13.2-7.4-18C95.5,59.3,89,56.6,82.2,56.6z"/>
<path class="st3" d="M137.7,91.1v-18l-13.2-1.5c-1-4.2-2.7-8.3-5-12l8.3-10.3L115,36.5l-10.3,8.3c-3.7-2.3-7.8-3.9-12-5l-1.5-13.2
	h-18l-1.5,13.2c-4.2,1-8.3,2.7-12,5l-10.3-8.3L36.6,49.3l8.3,10.3c-2.3,3.7-3.9,7.8-5,12l-13.2,1.5v18l13.2,1.5c1,4.2,2.7,8.3,5,12
	l-8.3,10.4l12.8,12.8l10.3-8.3c3.7,2.3,7.8,3.9,12,5l1.5,13.2h18l1.5-13.2c4.2-1,8.3-2.7,12-5l10.3,8.3l12.8-12.8l-8.3-10.3
	c2.3-3.7,3.9-7.8,5-12L137.7,91.1z M101.5,101.3C90.8,112,73.6,112,63,101.3s-10.6-27.9,0-38.5c10.6-10.6,27.9-10.6,38.5,0
	C112.1,73.5,112.1,90.7,101.5,101.3C101.5,101.3,101.5,101.3,101.5,101.3z"/>
<path class="st3" d="M97.7,66.6c-8.5-8.5-22.4-8.5-30.9,0s-8.5,22.4,0,30.9c8.5,8.5,22.4,8.5,30.9,0C106.2,89,106.2,75.2,97.7,66.6z
	 M91.2,91.1c-5,5-13,4.9-18,0c-5-5-4.9-13,0-18c5-4.9,13-4.9,17.9,0C96.2,78.1,96.2,86.1,91.2,91.1C91.3,91.1,91.2,91.1,91.2,91.1z"
	/>
</svg>
