<?xml version="1.0" encoding="utf-8"?>
<!-- Generator: Adobe Illustrator 22.1.0, SVG Export Plug-In . SVG Version: 6.00 Build 0)  -->
<svg version="1.1" id="Layer_1" xmlns="http://www.w3.org/2000/svg" xmlns:xlink="http://www.w3.org/1999/xlink" x="0px" y="0px"
	 viewBox="0 0 200 200" style="enable-background:new 0 0 200 200;" xml:space="preserve">
<style type="text/css">
	.st0{fill:#D8D8D8;}
	.st1{fill:#831E19;}
</style>
<title>assets</title>
<g>
	<path class="st0" d="M142.4,95.7c-19.6,23.4-54.4,26.6-77.9,7c-2.5-2.1-4.9-4.5-7-7c-15.3,13.2-25,32-25,48.3
		c0,28.6,30.2,38.3,67.5,38.3s67.5-9.7,67.5-38.3C167.4,127.8,157.7,109,142.4,95.7z"/>
	<circle class="st0" cx="100" cy="60.2" r="42.5"/>
</g>
<g>
	<polygon class="st1" points="117.7,168.9 96.5,152.8 92.1,180.8 	"/>
	<path class="st1" d="M151,80.8l-6.2,8.2l21.2,16.1l6.3-8.2c4.5-5.9,3.3-14.2-2.6-18.6l0,0l0,0C163.9,73.8,155.5,75,151,80.8
		L151,80.8z"/>
	
		<rect x="96.8" y="119.6" transform="matrix(0.6038 -0.7972 0.7972 0.6038 -55.0835 154.9452)" class="st1" width="63" height="26.6"/>
	
		<rect x="148.3" y="89.1" transform="matrix(0.6038 -0.7972 0.7972 0.6038 -21.6227 161.2551)" class="st1" width="6.2" height="26.6"/>
</g>
</svg>
