<?xml version="1.0" encoding="utf-8"?>
<!-- Generator: Adobe Illustrator 22.1.0, SVG Export Plug-In . SVG Version: 6.00 Build 0)  -->
<svg version="1.1" id="Layer_1" xmlns="http://www.w3.org/2000/svg" xmlns:xlink="http://www.w3.org/1999/xlink" x="0px" y="0px"
	 viewBox="0 0 200 200" style="enable-background:new 0 0 200 200;" xml:space="preserve">
<style type="text/css">
	.st0{fill:#D8D8D8;}
	.st1{fill:#831E19;}
</style>
<title>assets</title>
<circle class="st0" cx="99.7" cy="100" r="59.2"/>
<path class="st1" d="M45,34.1c-3.7,7.3-6.1,15.2-7.3,23.3c-1,7.2-0.9,14.6,0.5,21.8c4.9-4.3,10.5-7.7,16.6-10.1
	c5.3-2.1,11-3.2,16.7-3.2l-6.8-8.1c0.5-0.4,0.9-0.8,1.4-1.1l0.4-0.3l1.1-0.9c0.4-0.3,0.9-0.6,1.4-0.9c0.9-0.6,1.7-1.3,2.7-1.7
	c1-0.5,1.9-1.1,2.8-1.6l2.9-1.4c4-1.8,8.1-3,12.4-3.8l3.2-0.6l3.2-0.2c2.2-0.2,4.3-0.2,6.5-0.1c8.7,0.4,17.1,3,24.6,7.3
	c1.9,1.1,3.7,2.3,5.4,3.5c0.9,0.6,1.7,1.3,2.5,2c0.8,0.7,1.7,1.4,2.4,2.1l2.3,2.3l1.1,1.2l1,1.3l2,2.5c0.7,0.9,1.2,1.8,1.8,2.7
	c4.7,7.3,7.7,15.6,8.5,24.2c0.8,8.6-0.4,17.3-3.5,25.4c-3.2,8.1-8.3,15.3-14.7,21.1c-6.5,5.7-14.3,9.8-22.7,12l-1.6,0.4l-1.6,0.3
	l-3.2,0.6l-0.8,0.1l-0.8,0.1l-1.6,0.1c-1.1,0.1-2.1,0.2-3.2,0.2c-4.3,0-8.6-0.4-12.8-1.4c-8.5-1.9-16.4-5.7-23.1-11.3l-2.5-2.1
	c-0.8-0.8-1.5-1.6-2.3-2.3c-1.5-1.5-2.9-3.2-4.2-4.9c-0.7-0.8-1.3-1.7-1.8-2.7l-1.7-2.7l-1.1-2.2l-0.4-0.9l-0.9-1.6l-18.5,8.5
	l1.1,2.3l0.6,1.1l1.6,3.1l2.4,3.7c0.8,1.3,1.6,2.5,2.5,3.6c1.8,2.4,3.7,4.6,5.8,6.8c1,1.1,2,2.1,3.1,3.2L52,158
	c9.1,7.6,20,12.9,31.6,15.4c5.8,1.3,11.7,1.9,17.6,1.8c1.5-0.1,3-0.2,4.4-0.3l2.2-0.2l1.1-0.1l1.1-0.2l4.4-0.8l2.2-0.4l2.1-0.6
	c11.5-3,22.2-8.7,31.1-16.5c8.8-8,15.7-17.8,20.1-28.9c4.3-11.1,5.9-23.1,4.7-34.9c-1.2-11.8-5.2-23.2-11.6-33.2
	c-0.9-1.2-1.6-2.5-2.5-3.7l-2.8-3.5l-1.4-1.7l-1.5-1.6l-3.1-3.2c-1-1-2.2-1.9-3.3-2.9c-1.1-1-2.2-2-3.5-2.8
	c-2.4-1.8-4.8-3.4-7.4-4.9c-10.3-6-21.8-9.4-33.7-10c-3-0.2-5.9-0.1-8.9,0.1c-1.5,0.1-3,0.2-4.4,0.3l-4.4,0.8
	c-5.8,1-11.5,2.8-16.9,5.2c-1.3,0.6-2.7,1.3-4,1.9c-1.3,0.6-2.6,1.4-3.9,2.2c-1.3,0.7-2.5,1.6-3.7,2.4c-0.6,0.4-1.2,0.8-1.8,1.3
	l-1.6,1.2l-0.5,0.4c-0.7,0.5-1.3,1-2,1.6L45,34.1z"/>
<path class="st1" d="M46.1,112.9l1.1,3.8l0.3,1c0.1,0.3,0.2,0.6,0.4,0.9l0.7,1.8l-18.1,7.2l-1-2.5c-0.2-0.4-0.3-0.9-0.5-1.3
	l-0.4-1.3l-1.4-5.1L46.1,112.9z"/>
<path class="st1" d="M44.9,106.1c0.2,1.5,0.4,3,0.7,4.5l-19.1,3.7c-0.4-2-0.7-4-0.9-6L44.9,106.1z"/>
<path class="st1" d="M44.5,99.9c0,1,0,2,0.1,3l-19.4,1c-0.1-1.4-0.1-2.7-0.1-4.1H44.5z"/>
<path class="st1" d="M97.3,62.7h4.8c0.3,0,0.5,0.2,0.5,0.5v42.6c0,0.3-0.2,0.5-0.5,0.5h-4.8c-0.3,0-0.5-0.2-0.5-0.5V63.1
	C96.9,62.9,97.1,62.7,97.3,62.7z"/>
<circle class="st1" cx="99.7" cy="100" r="10.2"/>
<path class="st1" d="M93.1,97.9l3.3-3.8c0.2-0.2,0.5-0.2,0.6,0l39.2,34.2c0.2,0.2,0.2,0.5,0,0.6l-3.3,3.8c-0.2,0.2-0.5,0.2-0.6,0
	L93.2,98.5C93,98.3,93,98.1,93.1,97.9z"/>
</svg>
