<?xml version="1.0" encoding="utf-8"?>
<!-- Generator: Adobe Illustrator 22.1.0, SVG Export Plug-In . SVG Version: 6.00 Build 0)  -->
<svg version="1.1" id="Layer_1" xmlns="http://www.w3.org/2000/svg" xmlns:xlink="http://www.w3.org/1999/xlink" x="0px" y="0px"
	 viewBox="0 0 200 200" style="enable-background:new 0 0 200 200;" xml:space="preserve">
<style type="text/css">
	.st0{fill:#FFFFFF;}
	.st1{fill:#447D64;}
</style>
<g>
	<path class="st0" d="M32.1,66.7h135.8c3.9,0,7.1,3.2,7.1,7.1V160c0,3.9-3.2,7.1-7.1,7.1H32.1c-3.9,0-7.1-3.2-7.1-7.1V73.7
		C25,69.8,28.2,66.7,32.1,66.7z"/>
	<path class="st0" d="M58.9,104.2c-6.2,0.2-11.5-4.6-11.7-10.8c-0.2-6.2,4.6-11.5,10.8-11.7c0.3,0,0.6,0,0.9,0h91.4
		c6.2-0.2,11.5,4.6,11.7,10.8c0.2,6.2-4.6,11.5-10.8,11.7c-0.3,0-0.6,0-0.9,0H58.9z"/>
	<path class="st0" d="M105.5,122.8c-6.2,0.2-11.5-4.6-11.7-10.8c-0.2-6.2,4.6-11.5,10.8-11.7c0.3,0,0.6,0,0.9,0h44.8
		c6.2-0.2,11.5,4.6,11.7,10.8c0.2,6.2-4.6,11.5-10.8,11.7c-0.3,0-0.6,0-0.9,0H105.5z"/>
	<path class="st0" d="M105.5,141.5c-6.2,0.2-11.5-4.6-11.7-10.8s4.6-11.5,10.8-11.7c0.3,0,0.6,0,0.9,0h44.8
		c6.2-0.2,11.5,4.6,11.7,10.8c0.2,6.2-4.6,11.5-10.8,11.7c-0.3,0-0.6,0-0.9,0H105.5z"/>
	<path class="st0" d="M32.1,32.9h135.8c3.9,0,7.1,3.2,7.1,7.1v33.8c0,3.9-3.2,7.1-7.1,7.1H32.1c-3.9,0-7.1-3.2-7.1-7.1V40
		C25,36.1,28.2,32.9,32.1,32.9z"/>
	<path class="st0" d="M32.1,32.9h135.8c3.9,0,7.1,3.2,7.1,7.1v33.8c0,3.9-3.2,7.1-7.1,7.1H32.1c-3.9,0-7.1-3.2-7.1-7.1V40
		C25,36.1,28.2,32.9,32.1,32.9z"/>
	<path class="st0" d="M75.4,151.6c-3.2,0-6-2.1-6.8-5.2c-1.2-2.2-1.1-4.9,0.2-7.1c0.4-0.6,1.1-1.8,1.8-3.2c0.6-1,1.3-1.8,2.3-2.4
		c4.3-3,5.4-8.9,2.4-13.2c-3-4.3-8.9-5.4-13.2-2.4c-4.3,3-5.4,8.9-2.4,13.2c0.7,1,1.5,1.8,2.4,2.4c0.9,0.6,1.7,1.5,2.2,2.5
		c0.7,1.3,1.4,2.5,1.8,3.2c1.3,2.2,1.4,4.9,0.2,7.1c-0.9,3-3.6,5.1-6.8,5.1c-1,0-1.9-0.2-2.8-0.6c-13.9-5.9-20.4-22-14.4-36
		s22-20.4,36-14.4c13.9,5.9,20.4,22,14.4,36c-2.8,6.5-8,11.7-14.5,14.5C77.3,151.4,76.3,151.6,75.4,151.6z"/>
	<path class="st0" d="M61,137.5h12.8c3.9,0,7.1,3.2,7.1,7.1v6.5c0,3.9-3.2,7.1-7.1,7.1H61c-3.9,0-7.1-3.2-7.1-7.1v-6.5
		C53.9,140.7,57.1,137.5,61,137.5z"/>
	<path class="st0" d="M61.9,150.1c-2.4,0-4.7-1.2-6-3.3c-2.7-4.3-6-10.3-6-14.5c0-1.4,0.4-2.8,1.1-3.9c3.2-5,5.9-10.2,8.3-15.7
		c1.1-2.6,3.6-4.3,6.5-4.4h0.9h0.7h0.7H69c2.9,0,5.4,1.7,6.5,4.4c2.4,5.4,5.2,10.7,8.3,15.7c0.8,1.2,1.1,2.5,1.1,3.9
		c0,4.1-3.3,10.1-6,14.5c-1.3,2.1-3.6,3.3-6,3.3H61.9z"/>
	<path class="st0" d="M62.9,139.4h9c3.9,0,7.1,3.2,7.1,7.1v2.8c0,3.9-3.2,7.1-7.1,7.1h-9c-3.9,0-7.1-3.2-7.1-7.1v-2.8
		C55.9,142.5,59,139.4,62.9,139.4z"/>
	<path class="st0" d="M75.4,151.6c-3.2,0-6-2.1-6.8-5.2c-1.2-2.2-1.1-4.9,0.2-7.1c0.4-0.6,1.1-1.8,1.8-3.2c0.6-1,1.3-1.8,2.3-2.4
		c4.3-3,5.4-8.9,2.4-13.2c-3-4.3-8.9-5.4-13.2-2.4c-4.3,3-5.4,8.9-2.4,13.2c0.7,1,1.5,1.8,2.4,2.4c0.9,0.6,1.7,1.5,2.2,2.5
		c0.7,1.3,1.4,2.5,1.8,3.2c1.3,2.2,1.4,4.9,0.2,7.1c-0.9,3-3.6,5.1-6.8,5.1c-1,0-1.9-0.2-2.8-0.6c-13.9-5.9-20.4-22-14.4-36
		s22-20.4,36-14.4c13.9,5.9,20.4,22,14.4,36c-2.8,6.5-8,11.7-14.5,14.5C77.3,151.4,76.3,151.6,75.4,151.6z"/>
	<path class="st0" d="M61,137.5h12.8c3.9,0,7.1,3.2,7.1,7.1v6.5c0,3.9-3.2,7.1-7.1,7.1H61c-3.9,0-7.1-3.2-7.1-7.1v-6.5
		C53.9,140.7,57.1,137.5,61,137.5z"/>
	<path class="st0" d="M61.9,150.1c-2.4,0-4.7-1.2-6-3.3c-2.7-4.3-6-10.3-6-14.5c0-1.4,0.4-2.8,1.1-3.9c3.2-5,5.9-10.2,8.3-15.7
		c1.1-2.6,3.6-4.3,6.5-4.4h0.9h0.7h0.7H69c2.9,0,5.4,1.7,6.5,4.4c2.4,5.4,5.2,10.7,8.3,15.7c0.8,1.2,1.1,2.5,1.1,3.9
		c0,4.1-3.3,10.1-6,14.5c-1.3,2.1-3.6,3.3-6,3.3H61.9z"/>
	<path class="st0" d="M62.9,139.4h9c3.9,0,7.1,3.2,7.1,7.1v2.8c0,3.9-3.2,7.1-7.1,7.1h-9c-3.9,0-7.1-3.2-7.1-7.1v-2.8
		C55.9,142.5,59,139.4,62.9,139.4z"/>
	<path class="st0" d="M75.4,151.6c-3.2,0-6-2.1-6.8-5.2c-1.2-2.2-1.1-4.9,0.2-7.1c0.4-0.6,1.1-1.8,1.8-3.2c0.6-1,1.3-1.8,2.3-2.4
		c4.3-3,5.4-8.9,2.4-13.2c-3-4.3-8.9-5.4-13.2-2.4c-4.3,3-5.4,8.9-2.4,13.2c0.7,1,1.5,1.8,2.4,2.4c0.9,0.6,1.7,1.5,2.2,2.5
		c0.7,1.3,1.4,2.5,1.8,3.2c1.3,2.2,1.4,4.9,0.2,7.1c-0.9,3-3.6,5.1-6.8,5.1c-1,0-1.9-0.2-2.8-0.6c-13.9-5.9-20.4-22-14.4-36
		s22-20.4,36-14.4c13.9,5.9,20.4,22,14.4,36c-2.8,6.5-8,11.7-14.5,14.5C77.3,151.4,76.3,151.6,75.4,151.6z"/>
	<path class="st0" d="M61,137.5h12.8c3.9,0,7.1,3.2,7.1,7.1v6.5c0,3.9-3.2,7.1-7.1,7.1H61c-3.9,0-7.1-3.2-7.1-7.1v-6.5
		C53.9,140.7,57.1,137.5,61,137.5z"/>
	<path class="st0" d="M61.9,150.1c-2.4,0-4.7-1.2-6-3.3c-2.7-4.3-6-10.3-6-14.5c0-1.4,0.4-2.8,1.1-3.9c3.2-5,5.9-10.2,8.3-15.7
		c1.1-2.6,3.6-4.3,6.5-4.4h0.9h0.7h0.7H69c2.9,0,5.4,1.7,6.5,4.4c2.4,5.4,5.2,10.7,8.3,15.7c0.8,1.2,1.1,2.5,1.1,3.9
		c0,4.1-3.3,10.1-6,14.5c-1.3,2.1-3.6,3.3-6,3.3H61.9z"/>
	<path class="st0" d="M62.9,139.4h9c3.9,0,7.1,3.2,7.1,7.1v2.8c0,3.9-3.2,7.1-7.1,7.1h-9c-3.9,0-7.1-3.2-7.1-7.1v-2.8
		C55.9,142.5,59,139.4,62.9,139.4z"/>
	<rect x="32.1" y="73.7" class="st0" width="135.8" height="86.3"/>
	<path class="st1" d="M58.9,88.7h91.5c2.3,0,4.2,1.9,4.2,4.2v0c0,2.3-1.9,4.2-4.2,4.2H58.9c-2.3,0-4.2-1.9-4.2-4.2v0
		C54.7,90.6,56.6,88.7,58.9,88.7z"/>
	<path class="st1" d="M105.5,107.4h44.8c2.3,0,4.2,1.9,4.2,4.2v0c0,2.3-1.9,4.2-4.2,4.2h-44.8c-2.3,0-4.2-1.9-4.2-4.2v0
		C101.3,109.3,103.2,107.4,105.5,107.4z"/>
	<path class="st1" d="M105.5,126h44.8c2.3,0,4.2,1.9,4.2,4.2v0c0,2.3-1.9,4.2-4.2,4.2h-44.8c-2.3,0-4.2-1.9-4.2-4.2v0
		C101.3,127.9,103.2,126,105.5,126z"/>
	<rect x="32.1" y="40" class="st1" width="135.8" height="33.8"/>
	<path class="st1" d="M67.5,105.5c-11.2,0-20.3,9.2-20.2,20.4c0,8.1,4.8,15.4,12.3,18.6V143h0.6c-0.5-0.9-1.3-2.1-2-3.5
		c-7.5-5.2-9.4-15.5-4.2-23.1c5.2-7.5,15.5-9.4,23.1-4.2c7.5,5.2,9.4,15.5,4.2,23.1c-1.1,1.7-2.6,3.1-4.2,4.2
		c-0.8,1.4-1.5,2.7-2,3.5h0.6v1.5c10.3-4.4,15-16.4,10.6-26.7C82.9,110.4,75.6,105.6,67.5,105.5z"/>
	<rect x="61" y="144.6" class="st1" width="12.8" height="6.5"/>
	<path class="st1" d="M61.9,143.1H73c0,0,4.9-7.8,5-10.8c-3.4-5.3-6.4-11-8.9-16.8h-0.9v13.6h0.2c1.6,0.5,2.4,2.1,1.9,3.7
		s-2.1,2.4-3.7,1.9s-2.4-2.1-1.9-3.7c0.3-0.9,1-1.6,1.9-1.9h0.2v-13.6h-1c-2.5,5.8-5.5,11.4-8.9,16.8
		C57,135.2,61.9,143.1,61.9,143.1z"/>
	<rect x="62.9" y="146.5" class="st0" width="9" height="2.8"/>
</g>
<title>assets</title>
<g>
	<path class="st0" d="M148.6,176.3c-18.2,0-33-14.8-33-33s14.8-33,33-33s33,14.8,33,33l0,0C181.5,161.5,166.8,176.3,148.6,176.3z"/>
	<path class="st0" d="M148.6,171.7c-15.6,0-28.3-12.7-28.3-28.3s12.7-28.3,28.3-28.3s28.3,12.7,28.3,28.3
		C176.9,159,164.2,171.6,148.6,171.7z"/>
	<path class="st0" d="M148.6,164.7c-4.2,0-7.5-3.4-7.5-7.5v-6.3h-6.3c-4.2,0-7.5-3.4-7.5-7.5c0-4.2,3.4-7.5,7.5-7.5h6.3v-6.3
		c0-4.2,3.4-7.5,7.5-7.5c4.2,0,7.5,3.4,7.5,7.5v6.4h6.3c4.2,0,7.5,3.4,7.5,7.5c0,4.2-3.4,7.5-7.5,7.5h-6.3v6.2
		C156.1,161.3,152.7,164.7,148.6,164.7z"/>
	<path class="st0" d="M148.6,164.7c-4.2,0-7.5-3.4-7.5-7.5v-6.3h-6.3c-4.2,0-7.5-3.4-7.5-7.5c0-4.2,3.4-7.5,7.5-7.5h6.3v-6.3
		c0-4.2,3.4-7.5,7.5-7.5c4.2,0,7.5,3.4,7.5,7.5v6.4h6.3c4.2,0,7.5,3.4,7.5,7.5c0,4.2-3.4,7.5-7.5,7.5h-6.3v6.2
		C156.1,161.3,152.7,164.7,148.6,164.7z"/>
	<circle class="st1" cx="148.6" cy="143.3" r="27.9"/>
	<circle class="st0" cx="148.6" cy="143.3" r="23.2"/>
	<path class="st1" d="M162.4,140.9H151v-11.5c0-1.3-1.1-2.4-2.4-2.4c-1.3,0-2.4,1.1-2.4,2.4v11.5h-11.4c-1.3,0-2.4,1.1-2.4,2.4
		c0,1.3,1.1,2.4,2.4,2.4h11.4v11.3c0,1.3,1.1,2.4,2.4,2.4c1.3,0,2.4-1.1,2.4-2.4v-11.4h11.4c1.3,0,2.4-1.1,2.4-2.4
		S163.7,140.9,162.4,140.9C162.4,140.9,162.4,140.9,162.4,140.9L162.4,140.9z"/>
</g>
</svg>
