<?xml version="1.0" encoding="utf-8"?>
<!-- Generator: Adobe Illustrator 22.1.0, SVG Export Plug-In . SVG Version: 6.00 Build 0)  -->
<svg version="1.1" id="Layer_1" xmlns="http://www.w3.org/2000/svg" xmlns:xlink="http://www.w3.org/1999/xlink" x="0px" y="0px"
	 viewBox="0 0 200 200" style="enable-background:new 0 0 200 200;" xml:space="preserve">
<style type="text/css">
	.st0{fill:#D8D8D8;}
	.st1{fill:#447D64;}
</style>
<title>assets</title>
<path class="st0" d="M142.4,95.7c-19.6,23.4-54.4,26.6-77.9,7c-2.5-2.1-4.9-4.5-7-7c-15.3,13.2-25,32-25,48.3
	c0,28.6,30.2,38.3,67.5,38.3s67.5-9.7,67.5-38.3C167.4,127.8,157.7,109,142.4,95.7z"/>
<circle class="st0" cx="100" cy="60.2" r="42.5"/>
<path class="st1" d="M165.9,90.3c-7.2-14.2-24.6-19.9-38.8-12.7c-14.2,7.2-19.9,24.6-12.7,38.8c6.2,12.2,20,18.4,33.2,14.8
	l13.5,26.3c3,5.9,7.2,11,12.4,15c1,0.7,2.4,0.5,3.1-0.4c0.3-0.4,0.5-0.9,0.4-1.4c-0.2-6.6-1.9-13-4.8-18.8l-13.5-26.4
	C169,116.9,172,102.3,165.9,90.3z M148.6,119.6c-8.9,4.6-19.9,1.1-24.5-7.9S123,91.8,132,87.2s19.9-1.1,24.5,7.9l0,0
	C161,104,157.5,115,148.6,119.6z"/>
</svg>
