<?xml version="1.0" encoding="utf-8"?>
<!-- Generator: Adobe Illustrator 22.1.0, SVG Export Plug-In . SVG Version: 6.00 Build 0)  -->
<svg version="1.1" id="Layer_1" xmlns="http://www.w3.org/2000/svg" xmlns:xlink="http://www.w3.org/1999/xlink" x="0px" y="0px"
	 viewBox="0 0 200 200" style="enable-background:new 0 0 200 200;" xml:space="preserve">
<style type="text/css">
	.st0{fill:#447D64;}
	.st1{fill:#EDEDED;}
</style>
<title>assets</title>
<circle class="st0" cx="100" cy="37.6" r="9.3"/>
<path class="st1" d="M26,172.5h141.9c0.4-1.6,0.7-3.3,0.9-5c0.7-9.2-3-18.1-10-24.1c-9.3-7.8-14.6-19.3-14.8-31.4V91.7
	c0.2-24.5-18.1-45.2-42.4-47.9c-26-2.5-49,16.6-51.5,42.5c-0.1,1.4-0.2,2.9-0.2,4.4v21.3c-0.1,12.1-5.5,23.6-14.8,31.5
	c-7,6-10.7,14.9-10,24.1C25.2,169.2,25.6,170.9,26,172.5z"/>
<path class="st0" d="M38.2,172.5h135.9c0.4-1.6,0.7-3.3,0.8-5c0.7-9.1-2.8-18-9.5-24.1c-9-8-14.1-19.4-14.2-31.5V91.7
	c0-24.5-17.4-45.6-40.7-47.9C83.8,41,61.1,63.2,61.1,90.6v21.3c-0.1,12-5.2,23.5-14.2,31.5c-6.7,6.1-10.2,15-9.5,24.1
	C37.5,169.2,37.8,170.9,38.2,172.5z"/>
</svg>
