<svg id="Layer_1" data-name="Layer 1" xmlns="http://www.w3.org/2000/svg" viewBox="0 0 173.71 173.7"><defs><style>.cls-1{fill:#3b5998;}.cls-2{fill:#fff;}.cls-2,.cls-3{stroke:#3b5998;stroke-miterlimit:10;stroke-width:3px;}.cls-3{fill:none;}</style></defs><title>fb-btn</title><path class="cls-1" d="M118.83,69.27V82h20.53l-2,22.31H118.83v66.61H92.23V104.56H78.39V82H92.23V64.19c0-16.69,8.92-25.4,28.72-25.4h18.41V61.93H125C119.88,61.93,118.83,64,118.83,69.27Z"/><path class="cls-2" d="M152,1.5H21.67A20.17,20.17,0,0,0,1.5,21.66V152A20.17,20.17,0,0,0,21.67,172.2H152A20.17,20.17,0,0,0,172.21,152V21.66A20.17,20.17,0,0,0,152,1.5ZM139.36,61.93H125c-5.09,0-6.14,2.08-6.14,7.34V82h20.53l-2,22.31H118.83v66.61H92.23V104.56H78.39V82H92.23V64.19c0-16.69,8.92-25.4,28.72-25.4h18.41Z"/><path class="cls-3" d="M118.83,69.27V82h20.53l-2,22.31H118.83v66.61H92.23V104.56H78.39V82H92.23V64.19c0-16.69,8.92-25.4,28.72-25.4h18.41V61.93H125C119.88,61.93,118.83,64,118.83,69.27Z"/></svg>