<svg id="Layer_1" data-name="Layer 1" xmlns="http://www.w3.org/2000/svg" viewBox="0 0 173.71 173.71"><defs><style>.cls-1{fill:#fff;stroke:#3cba54;stroke-miterlimit:10;stroke-width:3px;}.cls-2{fill:#4885ed;}.cls-3{fill:#3cba54;}.cls-4{fill:#f4c20d;}.cls-5{fill:#db3236;}.cls-6{fill:none;}</style></defs><title>google-btn</title><rect class="cls-1" x="1.5" y="1.5" width="170.71" height="170.71" rx="20.17" ry="20.17"/><g id="btn_google_dark_normal" data-name="btn google dark normal"><g id="logo_googleg_48dp" data-name="logo googleg 48dp"><path id="Shape" class="cls-2" d="M139.88,88.11a62.83,62.83,0,0,0-1-11.3h-52V98.18h29.73a25.42,25.42,0,0,1-11,16.67V128.7h17.85c10.44-9.61,16.47-23.77,16.47-40.59Z"/><path id="Shape-2" data-name="Shape" class="cls-3" d="M86.85,142.09c14.92,0,27.42-5,36.56-13.39l-17.85-13.85a33.26,33.26,0,0,1-18.71,5.27c-14.38,0-26.56-9.72-30.9-22.77H37.5v14.31a55.19,55.19,0,0,0,49.35,30.43Z"/><path id="Shape-3" data-name="Shape" class="cls-4" d="M56,97.35a32.7,32.7,0,0,1,0-21V62.05H37.5a55.26,55.26,0,0,0,0,49.61L56,97.35Z"/><path id="Shape-4" data-name="Shape" class="cls-5" d="M86.85,53.59A29.83,29.83,0,0,1,108,61.85L123.81,46a53.07,53.07,0,0,0-37-14.39A55.19,55.19,0,0,0,37.5,62.05L56,76.36c4.34-13.06,16.52-22.77,30.9-22.77Z"/><path id="Shape-5" data-name="Shape" class="cls-6" d="M31.62,31.62H142.09V142.09H31.62Z"/></g></g></svg>