<?xml version="1.0" encoding="utf-8"?>
<!-- Generator: Adobe Illustrator 22.1.0, SVG Export Plug-In . SVG Version: 6.00 Build 0)  -->
<svg version="1.1" id="Layer_1" xmlns="http://www.w3.org/2000/svg" xmlns:xlink="http://www.w3.org/1999/xlink" x="0px" y="0px"
	 viewBox="0 0 612 792" style="enable-background:new 0 0 612 792;" xml:space="preserve">
<style type="text/css">
	.st0{fill:#831E19;}
	.st1{font-family:'Stark';}
	.st2{font-size:158.6407px;}
	.st3{fill:#447D64;}
	.st4{letter-spacing:-6;}
	.st5{fill:#4FAA87;}
</style>
<g>
	<text id="XMLID_2_" transform="matrix(1 0 0 1 45.3062 592.584)"><tspan x="0" y="0" class="st0 st1 st2">art</tspan><tspan x="193.9" y="0" class="st3 st1 st2">i</tspan><tspan x="228.9" y="0" class="st3 st1 st2 st4">me</tspan><tspan x="470.2" y="0" class="st3 st1 st2">r</tspan></text>
	<g id="XMLID_1_">
		<path class="st0" d="M559.2,203.3c-21.4-2.8-39.3,5.4-42.9,31.6c-62.6-67.9-161.6-67.3-206.3-67.3s-143.7-0.6-206.3,67.3
			c-3.6-26.2-21.5-34.4-42.9-31.6c-23,29.8-7.1,103.1,27.2,86.4c13.1,142.8,101.5,139,182.6,137.7c0.9,14.8,12.4,17.9,39.3,17.9
			c26.9,0,38.4-3.1,39.3-17.9c81.2,1.2,169.6,5.1,182.6-137.7C566.3,306.5,582.2,233.2,559.2,203.3z M276.9,372.7
			c-84.4,93.3-209.9-19.6-128.6-125C215.2,209.2,314.8,259.8,276.9,372.7z M287.9,273.4l-2.2-5.2l-2.5-5c-1.8-3.3-3.7-6.5-6-9.5
			c-8.7-12.1-20.7-21.5-34.3-27.5c-6.7-3.1-13.9-5.3-21.2-6.8c-7.3-1.6-14.8-2.2-22.3-2.3c-7.5,0-15,0.8-22.3,2.6
			c-7.3,1.8-14.4,4.6-20.9,8.7c5.8-5.1,12.8-8.7,20.1-11.2c7.4-2.4,15.1-3.8,22.9-4.2c7.8-0.5,15.6,0.1,23.3,1.5
			c7.7,1.4,15.2,3.7,22.4,6.9c7.1,3.3,13.9,7.4,20,12.5c6,5.1,11.4,11,15.6,17.6c4.3,6.6,7.6,13.7,9.7,21.2
			c2.1,7.5,3.2,15.1,3.5,22.8C292.5,287.8,290.7,280.4,287.9,273.4z M332.1,273.4c-2.7,7-4.6,14.4-6,22c0.2-7.7,1.4-15.3,3.5-22.8
			c2.1-7.5,5.4-14.6,9.7-21.2c4.2-6.6,9.6-12.5,15.6-17.6c6-5,12.8-9.2,20-12.5c7.2-3.2,14.7-5.5,22.4-6.9
			c7.7-1.3,15.5-1.9,23.3-1.5c7.8,0.4,15.5,1.8,22.9,4.2c7.3,2.5,14.4,6.2,20.1,11.2c-6.5-4.1-13.5-7-20.9-8.7
			c-7.3-1.8-14.8-2.5-22.3-2.6c-7.5,0-15,0.7-22.3,2.3c-7.3,1.5-14.4,3.7-21.2,6.8c-13.6,6-25.6,15.5-34.3,27.5
			c-2.2,3-4.1,6.2-6,9.5l-2.5,5L332.1,273.4z M343.1,372.7c-37.9-113,61.8-163.5,128.6-125C552.9,353.1,427.5,466.1,343.1,372.7z"/>
		<path class="st5" d="M169.5,275.8c-50.2,65,27.3,134.8,79.4,77.2C272.3,283.3,210.8,252.1,169.5,275.8z M240.1,346.8
			c-42,46.4-104.4-9.8-64-62.2C209.4,265.5,259,290.6,240.1,346.8z"/>
		<path class="st5" d="M450.5,275.8c-41.3-23.8-102.8,7.4-79.4,77.2C423.2,410.6,500.6,340.9,450.5,275.8z M379.9,346.8
			c-18.9-56.2,30.7-81.4,64-62.2C484.3,337.1,421.9,393.3,379.9,346.8z"/>
	</g>
</g>
</svg>
