<svg id="Layer_1" data-name="Layer 1" xmlns="http://www.w3.org/2000/svg" xmlns:xlink="http://www.w3.org/1999/xlink" viewBox="0 0 936 452"><defs><style>.cls-1{fill:none;}.cls-2{isolation:isolate;}.cls-3{clip-path:url(#clip-path);}.cls-4{fill:#551000;}.cls-5{fill:#5b1402;}.cls-6{fill:#5c1503;}.cls-7{clip-path:url(#clip-path-2);}.cls-8{fill:#500c00;}.cls-9{fill:#4a0700;}.cls-10{clip-path:url(#clip-path-3);}.cls-11{fill:#6c1e0f;}.cls-12{clip-path:url(#clip-path-4);}.cls-13{clip-path:url(#clip-path-5);}.cls-14{fill:#656668;}.cls-15{clip-path:url(#clip-path-6);}.cls-16{fill:#808283;}.cls-17{fill:#8d8f91;}.cls-18{fill:#737476;}.cls-19{fill:#bbbdbd;}.cls-20{fill:#d7baad;}.cls-21{clip-path:url(#clip-path-7);}.cls-22{fill:#caa594;}.cls-23{fill:#cfae9f;}.cls-24{fill:#c59b8a;}.cls-25{fill:#bf9380;}.cls-26{fill:#ba8a77;}.cls-27{fill:#b5826e;}.cls-28{fill:#b07a65;}.cls-29{fill:#ac735d;}.cls-30{fill:#a76b56;}.cls-31{clip-path:url(#clip-path-8);}.cls-32{fill:#995740;}.cls-33{fill:#9e5d47;}.cls-34{fill:#a2644f;}.cls-35{clip-path:url(#clip-path-9);}.cls-36{clip-path:url(#clip-path-10);}.cls-37{fill:#955039;}.cls-38{fill:#914933;}.cls-39{fill:#8c422c;}.cls-40{fill:#883b27;}.cls-41{fill:#843421;}.cls-42{fill:#802d1c;}.cls-43{fill:#ad7560;}.cls-44{clip-path:url(#clip-path-11);}.cls-45{fill:#ad745f;}.cls-46{clip-path:url(#clip-path-12);}.cls-47{clip-path:url(#clip-path-13);}.cls-48{fill:#d5b8aa;}.cls-49{clip-path:url(#clip-path-14);}.cls-50{clip-path:url(#clip-path-15);}.cls-51{clip-path:url(#clip-path-16);}.cls-52{font-size:80px;fill:#7d2618;font-family:Montserrat-Regular, Montserrat;letter-spacing:-0.03em;}.cls-53{letter-spacing:-0.04em;}</style><clipPath id="clip-path"><path class="cls-1" d="M709.58,102.65l9.68,28.45c1.66,4.87-.58,10.86-6.86,16.21l-9.68-28.45C709,113.51,711.24,107.52,709.58,102.65Z"/></clipPath><clipPath id="clip-path-2"><path class="cls-1" d="M590.85,198l-9.68-28.45c-2.59-7.62.91-17,10.72-25.35,16.48-14.05,44.51-20,62.6-13.26l18.7,6.95c2.79,1,7.1.12,9.63-2l9.68,28.45c-2.53,2.15-6.85,3.08-9.64,2l-18.69-7c-18.09-6.73-46.12-.79-62.6,13.26C591.76,181,588.26,190.37,590.85,198Z"/></clipPath><clipPath id="clip-path-3"><path class="cls-1" d="M615.62,190.66l9.68,28.45c.4,1.17-.14,2.62-1.65,3.91L614,194.57C615.48,193.28,616,191.84,615.62,190.66Z"/></clipPath><clipPath id="clip-path-4"><path class="cls-1" d="M492.67,204.34,483,175.89c4.33,12.74,15.59,23.51,33.6,30.21L554,220c11.58,4.3,29.5.5,40-8.49L603.75,240c-10.53,9-28.46,12.79-40,8.49l-37.45-13.93C508.25,227.85,497,217.08,492.67,204.34Z"/></clipPath><clipPath id="clip-path-5"><path class="cls-1" d="M692.14,191.77l9.68,28.45c-1.76-5.18-6.34-9.56-13.66-12.28-.18-.07-11.77-4.39-18.69-6.95a3.27,3.27,0,0,1-2.1-1.9l-9.68-28.44a3.28,3.28,0,0,0,2.11,1.89l18.68,7C685.81,182.21,690.38,186.59,692.14,191.77Z"/></clipPath><clipPath id="clip-path-6"><path class="cls-1" d="M790.33,185.42,800,213.87c6.38,18.76-2.24,41.78-26.38,62.38-40.54,34.58-109.5,49.19-154,32.64L582.14,295c-4.68-1.74-7.6-4.54-8.73-7.85l-9.68-28.45c1.13,3.31,4,6.11,8.74,7.85l37.46,13.93c44.53,16.55,113.48,1.94,154-32.64C788.1,227.21,796.71,204.18,790.33,185.42Z"/></clipPath><clipPath id="clip-path-7"><path class="cls-1" d="M204.3,199.91,229,228.62c-2.11,3.44-2.63,7-1.42,9.6l-24.65-28.71C201.67,206.92,202.19,203.35,204.3,199.91Z"/></clipPath><clipPath id="clip-path-8"><path class="cls-1" d="M173.79,235.73l24.65,28.71a5.32,5.32,0,0,1,1.09,1.91l-24.66-28.71A5,5,0,0,0,173.79,235.73Z"/></clipPath><clipPath id="clip-path-9"><path class="cls-1" d="M199.31,268.18l-24.65-28.71c-.7-.81.15-1.76.21-1.83l24.66,28.71C199.46,266.43,198.61,267.37,199.31,268.18Z"/></clipPath><clipPath id="clip-path-10"><path class="cls-1" d="M179.74,241.52l24.65,28.71a4.73,4.73,0,0,1,.93,3.41c-.14,2-1.23,3.8-3,3.55a5,5,0,0,1-2.77-1.78c-2.65-2.88-9.28-4.49-15.66-5.39a126.35,126.35,0,0,0-14.5-1.12l-24.65-28.71a126.65,126.65,0,0,1,14.5,1.12c6.37.9,13,2.51,15.66,5.39a5,5,0,0,0,2.77,1.78c1.77.25,2.86-1.59,3-3.55A4.82,4.82,0,0,0,179.74,241.52Z"/></clipPath><clipPath id="clip-path-11"><path class="cls-1" d="M365.43,88.11l24.65,28.71c.6.71.39,2-.62,3.09-20.82,22.69-50.13,37.5-66.95,42-6.25,1.67-29.42,5.81-45.09,8.54-9,1.57-18.41,8.27-23.57,16.84L229.2,158.6c5.16-8.57,14.54-15.27,23.57-16.84,15.67-2.73,38.84-6.87,45.08-8.54,16.83-4.52,46.14-19.33,67-42C365.82,90.11,366,88.82,365.43,88.11Z"/></clipPath><clipPath id="clip-path-12"><path class="cls-1" d="M243.05,270.27,218.4,241.56a11.48,11.48,0,0,1-1.68-2.6l24.65,28.71A11.83,11.83,0,0,0,243.05,270.27Z"/></clipPath><clipPath id="clip-path-13"><path class="cls-1" d="M358.65,128.2l24.65,28.71a127.58,127.58,0,0,1,11.14,15.54c3.39,5.48,2.42,13.64-2.54,21.48l-24.66-28.71c5-7.84,5.94-16,2.54-21.48A126.37,126.37,0,0,0,358.65,128.2Z"/></clipPath><clipPath id="clip-path-14"><path class="cls-1" d="M224.24,289.58l-24.65-28.71a21.57,21.57,0,0,0,14.09,7.83c5.66.79,12.69,0,21.93-2.28,13.54-3.32,46.31-14.42,61.07-20s25.44-10,34-23.43l24.65,28.71c-8.53,13.47-19.33,17.88-34,23.43s-47.53,16.68-61.07,20c-9.23,2.27-16.27,3.07-21.93,2.28A21.62,21.62,0,0,1,224.24,289.58Z"/></clipPath><clipPath id="clip-path-15"><path class="cls-1" d="M307.46,262.71l24.66,28.71c3.15,3.68,5.84,9.29,7.43,17.73L314.9,280.44C313.31,272,310.62,266.39,307.46,262.71Z"/></clipPath><clipPath id="clip-path-16"><path class="cls-1" d="M285.59,297.67,260.93,269a2.52,2.52,0,0,0,1.61.69,17.08,17.08,0,0,0,5.6-.52A37.52,37.52,0,0,1,281,269c16.11,2.27,33,11,33.91,11.41l24.65,28.71c-.89-.46-17.8-9.14-33.91-11.41a37.46,37.46,0,0,0-12.84.1,17.14,17.14,0,0,1-5.61.52A2.49,2.49,0,0,1,285.59,297.67Z"/></clipPath></defs><title>banners-01</title><g class="cls-2"><g class="cls-2"><g class="cls-3"><g class="cls-2"><path class="cls-4" d="M709.58,102.65l9.68,28.45a9.36,9.36,0,0,1,.51,2.69l-9.67-28.45a9.72,9.72,0,0,0-.52-2.69"/><path class="cls-5" d="M710.1,105.34l9.67,28.45c.22,4.1-2,8.7-6.72,13l-9.67-28.45c4.71-4.25,6.93-8.85,6.72-13"/><path class="cls-4" d="M703.38,118.29l9.67,28.45-.65.57-9.68-28.45.66-.57"/></g></g></g><polygon class="cls-6" points="702.72 118.86 712.4 147.31 692.5 164.29 682.82 135.84 702.72 118.86"/><g class="cls-2"><g class="cls-7"><g class="cls-2"><path class="cls-4" d="M682.82,135.84l9.68,28.45a10,10,0,0,1-1.76,1.17L681.06,137a10,10,0,0,0,1.76-1.17"/><path class="cls-8" d="M681.06,137l9.68,28.45a11.93,11.93,0,0,1-2.48.93L678.58,138a12,12,0,0,0,2.48-.94"/><path class="cls-9" d="M678.58,138l9.68,28.44a9.4,9.4,0,0,1-5.4-.06l-18.69-7c-9.89-3.68-22.73-3.57-35-.43l-9.67-28.45c12.31-3.14,25.16-3.24,35,.43l18.7,6.95a9.36,9.36,0,0,0,5.39.07"/><path class="cls-8" d="M619.45,130.5,629.12,159A76.52,76.52,0,0,0,613,165l-9.67-28.45a76.11,76.11,0,0,1,16.1-6.09"/><path class="cls-4" d="M603.35,136.59,613,165a60.42,60.42,0,0,0-11.45,7.6l-1,.89-9.68-28.45,1-.89a60.18,60.18,0,0,1,11.46-7.6"/><path class="cls-5" d="M590.88,145.08l9.68,28.45c-7.38,6.64-10.85,13.83-10.51,20.25l-9.68-28.45c-.33-6.42,3.14-13.61,10.51-20.25"/><path class="cls-4" d="M580.37,165.33l9.68,28.45a15.31,15.31,0,0,0,.8,4.21l-9.68-28.45a15.31,15.31,0,0,1-.8-4.21"/></g></g></g><g class="cls-2"><g class="cls-10"><g class="cls-2"><path class="cls-4" d="M615.62,190.66l9.68,28.45a2.88,2.88,0,0,1,.13.65l-9.68-28.45a2.09,2.09,0,0,0-.13-.65"/><path class="cls-5" d="M615.75,191.31l9.68,28.45a4.14,4.14,0,0,1-1.62,3.12l-9.68-28.45a4.09,4.09,0,0,0,1.62-3.12"/><path class="cls-4" d="M614.13,194.43l9.68,28.45a1.07,1.07,0,0,0-.16.14L614,194.57l.16-.14"/></g></g></g><polygon class="cls-6" points="613.97 194.57 623.65 223.01 603.75 239.99 594.07 211.54 613.97 194.57"/><path class="cls-11" d="M700.85,94.8c11.57,4.3,12.41,15.07,1.87,24.06l-19.9,17c-2.53,2.16-6.84,3.08-9.63,2l-18.7-6.95c-18.09-6.73-46.12-.79-62.6,13.26s-15.16,30.9,2.94,37.63l18.7,7c2.78,1,3,3.62.44,5.79l-19.9,17c-10.53,9-28.45,12.79-40,8.49L516.59,206.1c-44.53-16.55-47.76-58-7.23-92.59s109.5-49.19,154-32.64Z"/><g class="cls-2"><g class="cls-12"><g class="cls-2"><path class="cls-4" d="M594.07,211.54,603.75,240a38.91,38.91,0,0,1-7.33,4.87l-9.68-28.45a38.91,38.91,0,0,0,7.33-4.87"/><path class="cls-8" d="M586.74,216.41l9.68,28.45a48.49,48.49,0,0,1-10.29,3.89l-9.68-28.45a48.49,48.49,0,0,0,10.29-3.89"/><path class="cls-9" d="M576.45,220.3l9.68,28.45c-7.87,2-16.09,2.08-22.41-.27l-37.45-13.93c-18-6.7-29.27-17.47-33.6-30.21L483,175.89c4.33,12.74,15.59,23.51,33.6,30.21L554,220c6.32,2.35,14.54,2.28,22.41.27"/></g></g></g><g class="cls-2"><g class="cls-13"><g class="cls-2"><path class="cls-14" d="M692.14,191.77l9.68,28.45c-1.76-5.18-6.34-9.56-13.66-12.28-.18-.07-11.77-4.39-18.69-6.95a3.27,3.27,0,0,1-2.1-1.9l-9.68-28.44a3.28,3.28,0,0,0,2.11,1.89l18.68,7c7.33,2.72,11.9,7.1,13.66,12.28"/></g></g></g><g class="cls-2"><g class="cls-15"><g class="cls-2"><path class="cls-16" d="M790.33,185.42,800,213.87a38.48,38.48,0,0,1,2,10.36l-9.68-28.45a37.79,37.79,0,0,0-2-10.36"/><path class="cls-17" d="M792.31,195.78,802,224.23c.82,15.79-7.72,33.5-25.87,49.84l-9.68-28.45c18.15-16.34,26.69-34.05,25.87-49.84"/><path class="cls-16" d="M766.44,245.62l9.68,28.45c-.81.73-1.64,1.45-2.49,2.18A148.66,148.66,0,0,1,745.44,295l-9.68-28.45A148.66,148.66,0,0,0,764,247.8c.85-.73,1.68-1.45,2.49-2.18"/><path class="cls-18" d="M735.76,266.52,745.44,295a187.75,187.75,0,0,1-39.61,15l-9.68-28.45a187.75,187.75,0,0,0,39.61-15"/><path class="cls-14" d="M696.15,281.49l9.68,28.45c-30.29,7.73-61.9,8-86.23-1.05L582.14,295c-4.68-1.74-7.6-4.54-8.73-7.85l-9.68-28.45c1.13,3.31,4,6.11,8.74,7.85l37.46,13.93c24.32,9,55.93,8.78,86.22,1.05"/></g></g></g><path class="cls-19" d="M719.27,141.28l37.46,13.93c44.53,16.56,47.77,58,7.22,92.59s-109.49,49.19-154,32.64l-37.46-13.93c-11.58-4.3-12.42-15.07-1.88-24.06l19.9-17c2.54-2.16,6.85-3.08,9.64-2l18.7,6.95c18.1,6.73,46.11.79,62.59-13.26s15.16-30.9-2.94-37.63l-18.68-7c-2.79-1-3-3.63-.46-5.8l19.91-17C689.78,140.79,707.7,137,719.27,141.28Z"/></g><g class="cls-2"><polygon class="cls-20" points="229.2 158.6 253.85 187.31 228.95 228.62 204.3 199.91 229.2 158.6"/><g class="cls-2"><g class="cls-21"><g class="cls-2"><path class="cls-22" d="M204.3,199.91,229,228.62c-.2.33-.39.67-.56,1l-24.66-28.71c.18-.33.37-.67.57-1"/><path class="cls-23" d="M203.73,200.91l24.66,28.71a13.89,13.89,0,0,0-1.06,2.61l-24.65-28.71a14.54,14.54,0,0,1,1-2.61"/><path class="cls-22" d="M202.68,203.52l24.65,28.71a13,13,0,0,0-.36,1.66l-24.65-28.71a10.3,10.3,0,0,1,.36-1.66"/><path class="cls-24" d="M202.32,205.18,227,233.89c0,.35-.07.69-.08,1l-24.65-28.71c0-.34,0-.68.08-1"/><path class="cls-25" d="M202.24,206.21l24.65,28.71c0,.27,0,.54,0,.81L202.26,207a7.3,7.3,0,0,1,0-.81"/><path class="cls-26" d="M202.26,207l24.65,28.71c0,.23,0,.46.08.68L202.33,207.7c0-.22-.06-.45-.07-.68"/><path class="cls-27" d="M202.33,207.7,227,236.41a6,6,0,0,0,.12.61l-24.65-28.71c-.05-.2-.09-.4-.13-.61"/><path class="cls-28" d="M202.46,208.31,227.11,237c0,.19.1.38.16.56l-24.65-28.71a5.15,5.15,0,0,1-.16-.56"/><path class="cls-29" d="M202.62,208.87l24.65,28.71c.06.17.13.34.2.51l-24.65-28.72a4.34,4.34,0,0,1-.2-.5"/><path class="cls-30" d="M202.82,209.37l24.65,28.72.06.13-24.65-28.71-.06-.14"/></g></g></g><g class="cls-2"><g class="cls-31"><g class="cls-2"><path class="cls-32" d="M173.79,235.73l24.65,28.71.14.16-24.66-28.71-.13-.16"/><path class="cls-33" d="M173.92,235.89l24.66,28.71c.12.15.22.3.32.44l-24.66-28.71a5.36,5.36,0,0,0-.32-.44"/><path class="cls-34" d="M174.24,236.33,198.9,265c.09.15.18.29.25.42L174.5,236.75c-.07-.13-.16-.27-.26-.42"/><path class="cls-30" d="M174.5,236.75l24.65,28.71.2.4-24.66-28.71c-.05-.12-.11-.25-.19-.4"/><path class="cls-29" d="M174.69,237.15l24.66,28.71c.05.13.1.24.12.32l-24.65-28.71c0-.08-.07-.19-.13-.32"/><path class="cls-28" d="M174.82,237.47l24.65,28.71.06.17-24.66-28.71a1,1,0,0,0-.05-.17"/></g></g></g><g class="cls-2"><g class="cls-35"><g class="cls-2"><path class="cls-26" d="M174.87,237.64l24.66,28.71,0,0-24.65-28.71v0"/><path class="cls-25" d="M174.86,237.66l24.65,28.71-.07.08-24.65-28.71a.3.3,0,0,1,.07-.08"/><path class="cls-24" d="M174.79,237.74l24.65,28.71-.09.13L174.7,237.87l.09-.13"/><path class="cls-22" d="M174.7,237.87l24.65,28.71a2.32,2.32,0,0,0-.14.23L174.56,238.1a1.54,1.54,0,0,1,.14-.23"/><path class="cls-23" d="M174.56,238.1l24.65,28.71a1.6,1.6,0,0,0-.11.29l-24.66-28.71a1.58,1.58,0,0,1,.12-.29"/><path class="cls-22" d="M174.44,238.39,199.1,267.1a1.08,1.08,0,0,0,0,.21L174.4,238.59a1.18,1.18,0,0,1,0-.2"/><path class="cls-24" d="M174.4,238.59l24.65,28.72a.53.53,0,0,0,0,.13l-24.65-28.71a.66.66,0,0,1,0-.14"/><path class="cls-25" d="M174.39,238.73,199,267.44v.1l-24.65-28.71a.17.17,0,0,1,0-.1"/><path class="cls-26" d="M174.39,238.83,199,267.54a.28.28,0,0,0,0,.09L174.4,238.92a.28.28,0,0,1,0-.09"/><path class="cls-27" d="M174.4,238.92l24.65,28.71a.29.29,0,0,0,0,.09L174.41,239s0-.06,0-.09"/><path class="cls-28" d="M174.41,239l24.66,28.71a.29.29,0,0,0,0,.09L174.44,239.1l0-.09"/><path class="cls-29" d="M174.44,239.1l24.65,28.71,0,.08-24.65-28.71,0-.08"/><path class="cls-30" d="M174.47,239.18l24.65,28.71a.56.56,0,0,0,0,.08l-24.66-28.71a.59.59,0,0,1,0-.08"/><path class="cls-34" d="M174.51,239.26,199.17,268a.41.41,0,0,0,.05.09l-24.65-28.71-.06-.09"/><path class="cls-33" d="M174.57,239.35l24.65,28.71.06.09-24.65-28.71-.06-.09"/><path class="cls-32" d="M174.63,239.44l24.65,28.71,0,0-24.65-28.71,0,0"/></g></g></g><g class="cls-2"><g class="cls-36"><g class="cls-2"><path class="cls-32" d="M179.74,241.52l24.65,28.71.07.08L179.8,241.6l-.06-.08"/><path class="cls-33" d="M179.8,241.6l24.66,28.71c.06.07.11.15.17.23L180,241.83l-.18-.23"/><path class="cls-34" d="M180,241.83l24.65,28.71.16.27L180.14,242.1l-.16-.27"/><path class="cls-30" d="M180.14,242.1l24.65,28.71.15.3L180.28,242.4c0-.1-.09-.2-.14-.3"/><path class="cls-29" d="M180.28,242.4l24.66,28.71.13.34-24.65-28.71c0-.11-.09-.23-.14-.34"/><path class="cls-28" d="M180.42,242.74l24.65,28.71c0,.13.08.26.11.39l-24.65-28.71c0-.13-.07-.26-.11-.39"/><path class="cls-27" d="M180.53,243.13l24.65,28.71a3.43,3.43,0,0,1,.09.44l-24.65-28.71a3.12,3.12,0,0,0-.09-.44"/><path class="cls-26" d="M180.62,243.57l24.65,28.71a4,4,0,0,1,.06.5l-24.66-28.71c0-.17,0-.34,0-.5"/><path class="cls-25" d="M180.67,244.07l24.66,28.71c0,.18,0,.37,0,.56l-24.65-28.71a5.15,5.15,0,0,0,0-.56"/><path class="cls-24" d="M180.69,244.63l24.65,28.71c0,.1,0,.2,0,.3s0,.23,0,.35l-24.65-28.71,0-.35c0-.1,0-.2,0-.3"/><path class="cls-22" d="M180.64,245.28,205.29,274a6.25,6.25,0,0,1-.18.86l-24.65-28.71a6.25,6.25,0,0,0,.18-.86"/><path class="cls-23" d="M180.46,246.14l24.65,28.71a5.24,5.24,0,0,1-.33.84L180.12,247a4.47,4.47,0,0,0,.34-.84"/><path class="cls-22" d="M180.12,247l24.66,28.71a3.64,3.64,0,0,1-.23.39l-24.66-28.71a2.5,2.5,0,0,0,.23-.39"/><path class="cls-24" d="M179.89,247.37l24.66,28.71-.14.19-24.65-28.71c0-.06.09-.12.13-.19"/><path class="cls-25" d="M179.76,247.56l24.65,28.71a.69.69,0,0,1-.11.13l-24.65-28.71.11-.13"/><path class="cls-26" d="M179.65,247.69,204.3,276.4l-.09.1-24.65-28.71.09-.1"/><path class="cls-27" d="M179.56,247.79l24.65,28.71-.08.09-24.65-28.71.08-.09"/><path class="cls-28" d="M179.48,247.88l24.65,28.71-.08.07L179.4,248a.27.27,0,0,1,.08-.07"/><path class="cls-29" d="M179.4,248l24.65,28.71-.07.06L179.32,248l.08-.06"/><path class="cls-30" d="M179.32,248,204,276.72l-.08.06-24.65-28.71.07-.06"/><path class="cls-34" d="M179.25,248.07l24.65,28.71-.07.05-24.65-28.71.07-.05"/><path class="cls-33" d="M179.18,248.12l24.65,28.71-.08.05L179.1,248.17l.08,0"/><path class="cls-32" d="M179.1,248.17l24.65,28.71-.07.05L179,248.22l.08-.05"/><path class="cls-37" d="M179,248.22l24.66,28.71-.09.05-24.65-28.71.08-.05"/><path class="cls-38" d="M178.94,248.27,203.59,277l-.08,0-24.65-28.71.08,0"/><path class="cls-39" d="M178.86,248.31,203.51,277l-.11.05-24.65-28.71.11-.05"/><path class="cls-40" d="M178.75,248.36l24.65,28.71-.11,0L178.64,248.4l.11,0"/><path class="cls-41" d="M178.64,248.4l24.65,28.71-.17.05-24.65-28.71.17,0"/><path class="cls-42" d="M178.47,248.45l24.65,28.71a2.12,2.12,0,0,1-.8,0,5,5,0,0,1-2.77-1.78c-2.65-2.88-9.28-4.49-15.66-5.39a126.35,126.35,0,0,0-14.5-1.12l-24.65-28.71a126.65,126.65,0,0,1,14.5,1.12c6.37.9,13,2.51,15.66,5.39a5,5,0,0,0,2.77,1.78,2.13,2.13,0,0,0,.8,0"/></g></g></g><path class="cls-43" d="M168.24,233c5.6.79,6.58,4.42,6.63,4.61-.1.11-2,2.22,2.4,2.84l.59.07H178c2,.29,2.83,2.39,2.68,4.37s-1.23,3.8-3,3.55a5,5,0,0,1-2.77-1.78c-2.65-2.88-9.29-4.49-15.66-5.39a126.65,126.65,0,0,0-14.5-1.12C156.57,233.68,163.83,232.41,168.24,233Z"/><g class="cls-2"><g class="cls-44"><g class="cls-2"><path class="cls-32" d="M365.43,88.11l24.65,28.71,0,0L365.46,88.15l0,0"/><path class="cls-33" d="M365.46,88.15l24.65,28.71.07.09L365.52,88.24l-.06-.09"/><path class="cls-34" d="M365.52,88.24,390.18,117l.06.1L365.58,88.34l-.06-.1"/><path class="cls-30" d="M365.58,88.34l24.66,28.71a.47.47,0,0,0,.05.1L365.63,88.44a.47.47,0,0,0-.05-.1"/><path class="cls-29" d="M365.63,88.44l24.66,28.71,0,.12L365.68,88.56a.61.61,0,0,0-.05-.12"/><path class="cls-28" d="M365.68,88.56l24.65,28.71s0,.08,0,.12L365.71,88.68l0-.12"/><path class="cls-27" d="M365.71,88.68l24.66,28.71a.59.59,0,0,1,0,.14L365.74,88.82a.58.58,0,0,0,0-.14"/><path class="cls-26" d="M365.74,88.82l24.65,28.71a.77.77,0,0,1,0,.15L365.76,89a.77.77,0,0,0,0-.15"/><path class="cls-25" d="M365.76,89l24.65,28.71a1.09,1.09,0,0,1,0,.18L365.76,89.15V89"/><path class="cls-24" d="M365.76,89.15l24.66,28.71c0,.08,0,.15,0,.23L365.74,89.38a.9.9,0,0,0,0-.23"/><path class="cls-22" d="M365.74,89.38l24.66,28.71c0,.12,0,.25-.08.38L365.66,89.76a1.84,1.84,0,0,0,.08-.38"/><path class="cls-23" d="M365.66,89.76l24.66,28.71a3.22,3.22,0,0,1-.23.55L365.44,90.31a2.53,2.53,0,0,0,.22-.55"/><path class="cls-22" d="M365.44,90.31,390.09,119a3.72,3.72,0,0,1-.22.38L365.22,90.69a3.72,3.72,0,0,0,.22-.38"/><path class="cls-24" d="M365.22,90.69l24.65,28.71c-.05.08-.11.15-.17.23L365.05,90.92l.17-.23"/><path class="cls-25" d="M365.05,90.92l24.65,28.71-.15.19L364.9,91.11l.15-.19"/><path class="cls-26" d="M364.9,91.11l24.65,28.71-.09.09c-.56.62-1.14,1.23-1.72,1.84L363.09,93c.58-.61,1.15-1.22,1.72-1.84l.09-.09"/><path class="cls-27" d="M363.09,93l24.65,28.71q-1.94,2-4,4L359.13,97q2-2,4-4"/><path class="cls-28" d="M359.13,97l24.65,28.71q-2,1.95-4.14,3.81L355,100.82q2.1-1.86,4.14-3.81"/><path class="cls-29" d="M355,100.82l24.65,28.71c-1.44,1.28-2.91,2.53-4.39,3.74L350.6,104.56c1.48-1.21,2.95-2.46,4.39-3.74"/><path class="cls-30" d="M350.6,104.56l24.65,28.71q-2.34,1.92-4.72,3.72l-24.65-28.71q2.39-1.8,4.72-3.72"/><path class="cls-34" d="M345.88,108.28,370.53,137c-1.67,1.27-3.36,2.49-5.06,3.68L340.82,112c1.7-1.19,3.38-2.41,5.06-3.68"/><path class="cls-33" d="M340.82,112l24.65,28.71q-2.75,1.92-5.51,3.69l-24.65-28.71c1.83-1.18,3.68-2.41,5.51-3.69"/><path class="cls-32" d="M335.31,115.65,360,144.36q-3,1.9-5.93,3.64l-24.65-28.71c2-1.16,3.94-2.37,5.93-3.64"/><path class="cls-37" d="M329.38,119.29,354,148c-2.14,1.25-4.27,2.44-6.36,3.55L323,122.84c2.09-1.11,4.22-2.3,6.36-3.55"/><path class="cls-38" d="M323,122.84l24.65,28.71c-2.28,1.21-4.53,2.33-6.71,3.36L316.3,126.2q3.29-1.55,6.72-3.36"/><path class="cls-39" d="M316.3,126.2,341,154.91c-2.36,1.11-4.65,2.12-6.85,3l-24.65-28.71c2.2-.9,4.49-1.91,6.84-3"/><path class="cls-40" d="M309.46,129.22l24.65,28.71c-2.34.95-4.57,1.79-6.68,2.5l-24.65-28.71c2.1-.71,4.34-1.55,6.68-2.5"/><path class="cls-41" d="M302.78,131.72l24.65,28.71q-2.61.87-4.92,1.5l-.9.23L297,133.45l.9-.23q2.32-.63,4.93-1.5"/><path class="cls-42" d="M297,133.45l24.66,28.71c-7.33,1.8-29.19,5.7-44.19,8.31-.58.1-1.16.22-1.74.37L251,142.13c.58-.15,1.16-.27,1.74-.37,15-2.61,36.86-6.51,44.18-8.31"/><path class="cls-41" d="M251,142.13l24.65,28.71c-.79.19-1.57.42-2.35.68l-24.65-28.71c.78-.26,1.56-.49,2.35-.68"/><path class="cls-40" d="M248.68,142.81l24.65,28.71c-.61.21-1.22.43-1.83.68l-24.65-28.71c.6-.25,1.21-.47,1.83-.68"/><path class="cls-39" d="M246.85,143.49,271.5,172.2c-.54.22-1.08.46-1.61.71L245.23,144.2c.54-.25,1.08-.49,1.62-.71"/><path class="cls-38" d="M245.23,144.2l24.66,28.71c-.5.23-1,.48-1.47.73l-24.65-28.71c.48-.25,1-.5,1.46-.73"/><path class="cls-37" d="M243.77,144.93l24.65,28.71c-.46.25-.91.5-1.36.77L242.4,145.7c.45-.27.91-.52,1.37-.77"/><path class="cls-32" d="M242.4,145.7l24.66,28.71c-.44.25-.87.52-1.3.79l-24.65-28.71c.43-.27.86-.54,1.29-.79"/><path class="cls-33" d="M241.11,146.49l24.65,28.71c-.42.27-.83.55-1.24.83l-24.65-28.71c.41-.28.82-.56,1.24-.83"/><path class="cls-34" d="M239.87,147.32,264.52,176c-.41.29-.81.58-1.2.88L238.66,148.2l1.21-.88"/><path class="cls-30" d="M238.66,148.2l24.66,28.71c-.4.3-.79.61-1.18.93l-24.65-28.71c.38-.32.78-.63,1.17-.93"/><path class="cls-29" d="M237.49,149.13l24.65,28.71c-.39.32-.78.65-1.16,1l-24.66-28.71c.39-.34.77-.67,1.17-1"/><path class="cls-28" d="M236.32,150.12,261,178.83c-.4.34-.78.7-1.16,1.06l-24.65-28.71c.38-.36.76-.72,1.15-1.06"/><path class="cls-27" d="M235.17,151.18l24.65,28.71q-.6.59-1.17,1.17L234,152.35q.57-.6,1.17-1.17"/><path class="cls-26" d="M234,152.35l24.65,28.71c-.4.43-.8.87-1.19,1.31l-24.65-28.71c.39-.45.78-.88,1.19-1.31"/><path class="cls-25" d="M232.81,153.66l24.65,28.71c-.44.5-.86,1-1.27,1.54L231.54,155.2c.41-.52.83-1,1.27-1.54"/><path class="cls-24" d="M231.54,155.2l24.65,28.71c-.49.63-1,1.28-1.41,1.94l-24.65-28.71c.45-.66.92-1.31,1.41-1.94"/><path class="cls-22" d="M230.13,157.14l24.65,28.71c-.32.48-.63,1-.93,1.46L229.2,158.6c.29-.49.61-1,.93-1.46"/></g></g></g><polygon class="cls-45" points="202.88 209.51 227.53 238.22 241.37 267.67 216.72 238.96 202.88 209.51"/><g class="cls-2"><g class="cls-46"><g class="cls-2"><path class="cls-30" d="M216.72,239l24.65,28.71c.11.22.21.43.33.64L217,239.6c-.11-.21-.22-.42-.32-.64"/><path class="cls-34" d="M217,239.6l24.66,28.71c.16.29.33.58.52.86l-24.65-28.71c-.19-.28-.36-.57-.53-.86"/><path class="cls-33" d="M217.57,240.46l24.65,28.71a9.3,9.3,0,0,0,.59.81l-24.65-28.71a9.3,9.3,0,0,1-.59-.81"/><path class="cls-32" d="M218.16,241.27,242.81,270l.24.29L218.4,241.56l-.24-.29"/></g></g></g><g class="cls-2"><g class="cls-47"><g class="cls-2"><path class="cls-32" d="M358.65,128.2l24.65,28.71c.64.74,1.26,1.49,1.87,2.26l-24.65-28.71c-.61-.77-1.24-1.52-1.87-2.26"/><path class="cls-33" d="M360.52,130.46l24.65,28.71c2.32,2.88,4.48,5.92,6.4,8.8l-24.66-28.71c-1.91-2.88-4.08-5.92-6.39-8.8"/><path class="cls-34" d="M366.91,139.26,391.57,168c1,1.56,2,3.07,2.87,4.48.12.19.23.38.34.58l-24.66-28.71c-.1-.2-.22-.39-.34-.58-.87-1.41-1.83-2.92-2.87-4.48"/><path class="cls-30" d="M370.12,144.32,394.78,173c.17.32.33.64.47,1L370.6,145.29a9.7,9.7,0,0,0-.48-1"/><path class="cls-29" d="M370.6,145.29,395.25,174c.15.34.29.69.41,1L371,146.33c-.13-.35-.26-.7-.41-1"/><path class="cls-28" d="M371,146.33,395.66,175q.18.56.33,1.14l-24.65-28.71q-.15-.58-.33-1.14"/><path class="cls-27" d="M371.34,147.47,396,176.18a12.56,12.56,0,0,1,.25,1.25l-24.65-28.71c-.07-.43-.15-.84-.25-1.25"/><path class="cls-26" d="M371.59,148.72l24.65,28.71a12.93,12.93,0,0,1,.16,1.41l-24.65-28.71c0-.48-.09-.95-.16-1.41"/><path class="cls-25" d="M371.75,150.13l24.65,28.71a15.23,15.23,0,0,1,0,1.66l-24.65-28.71a15.23,15.23,0,0,0,0-1.66"/><path class="cls-24" d="M371.78,151.79l24.65,28.71a18.91,18.91,0,0,1-.16,2.1l-24.66-28.71a19,19,0,0,0,.17-2.1"/><path class="cls-22" d="M371.61,153.89l24.66,28.71a22.61,22.61,0,0,1-.75,3.48l-24.65-28.71a22.55,22.55,0,0,0,.74-3.48"/><path class="cls-23" d="M370.87,157.37l24.65,28.71a28.41,28.41,0,0,1-2.15,5.29l-24.65-28.71a29.85,29.85,0,0,0,2.15-5.29"/><path class="cls-22" d="M368.72,162.66l24.65,28.71c-.44.86-.93,1.71-1.47,2.56l-24.66-28.71c.54-.85,1-1.7,1.48-2.56"/></g></g></g><polygon class="cls-48" points="367.24 165.22 391.9 193.93 355.31 251.7 330.66 222.99 367.24 165.22"/><g class="cls-2"><g class="cls-49"><g class="cls-2"><path class="cls-22" d="M330.66,223l24.65,28.71c-.28.45-.57.89-.86,1.32L329.8,224.31c.29-.43.57-.87.86-1.32"/><path class="cls-24" d="M329.8,224.31,354.45,253c-.66,1-1.33,1.9-2,2.78l-24.65-28.71c.69-.88,1.36-1.8,2-2.78"/><path class="cls-25" d="M327.78,227.09l24.65,28.71c-.51.67-1,1.31-1.57,1.92L326.2,229c.54-.61,1.06-1.25,1.58-1.92"/><path class="cls-26" d="M326.2,229l24.66,28.71c-.47.53-.93,1-1.4,1.54L324.8,230.55c.48-.5.94-1,1.4-1.54"/><path class="cls-27" d="M324.8,230.55l24.66,28.71c-.44.45-.87.89-1.31,1.31l-24.66-28.71c.45-.42.88-.86,1.31-1.31"/><path class="cls-28" d="M323.49,231.86l24.66,28.71c-.42.41-.85.8-1.28,1.18L322.22,233c.43-.38.85-.77,1.27-1.18"/><path class="cls-29" d="M322.22,233l24.65,28.71c-.42.37-.85.74-1.28,1.09l-24.65-28.71c.43-.35.86-.72,1.28-1.09"/><path class="cls-30" d="M320.94,234.13l24.65,28.71c-.44.36-.89.71-1.34,1.05L319.6,235.18c.45-.34.9-.69,1.34-1.05"/><path class="cls-34" d="M319.6,235.18l24.65,28.71c-.47.36-.95.71-1.43,1l-24.65-28.71c.48-.33,1-.68,1.43-1"/><path class="cls-33" d="M318.17,236.22l24.65,28.71c-.52.37-1.05.72-1.59,1.07l-24.65-28.71c.53-.35,1.06-.7,1.59-1.07"/><path class="cls-32" d="M316.58,237.29,341.23,266c-.6.38-1.22.76-1.84,1.12l-24.65-28.71c.62-.36,1.23-.74,1.84-1.12"/><path class="cls-37" d="M314.74,238.41l24.65,28.71c-.73.43-1.47.85-2.23,1.25L312.5,239.66c.76-.4,1.51-.82,2.24-1.25"/><path class="cls-38" d="M312.5,239.66l24.66,28.71c-1,.54-2.06,1.06-3.13,1.56l-24.65-28.71c1.06-.5,2.11-1,3.12-1.56"/><path class="cls-39" d="M309.38,241.22,334,269.93c-1.75.82-3.56,1.6-5.44,2.37l-24.66-28.71c1.89-.77,3.7-1.55,5.45-2.37"/><path class="cls-40" d="M303.93,243.59l24.66,28.71c-2.31.94-4.73,1.87-7.26,2.83-6.23,2.36-15.68,5.7-25.53,9l-24.65-28.71c9.85-3.32,19.3-6.66,25.53-9,2.53-1,4.94-1.89,7.25-2.83"/><path class="cls-41" d="M271.15,255.44l24.65,28.71c-13.43,4.53-27.63,9-35.47,11L235.68,266.4c7.84-1.93,22-6.43,35.47-11"/><path class="cls-42" d="M235.68,266.4l24.65,28.71-.07,0c-9.23,2.27-16.27,3.07-21.93,2.28a21.62,21.62,0,0,1-14.09-7.83l-24.65-28.71a21.57,21.57,0,0,0,14.09,7.83c5.66.79,12.69,0,21.93-2.28l.07,0"/></g></g></g><path class="cls-43" d="M348.37,83A57,57,0,0,1,365,87.78c1.1.53,1,2.12-.18,3.42-20.82,22.69-50.13,37.5-67,42-6.24,1.67-29.41,5.81-45.08,8.54-9,1.57-18.41,8.27-23.57,16.84l-24.9,41.31c-2.11,3.44-2.63,7-1.42,9.6L216.72,239c1.8,3.83,5.37,6.17,9.92,6.81a23.61,23.61,0,0,0,10.72-1.24L283.43,229a21.9,21.9,0,0,0,11.1-8.84l30.15-47.95a2.16,2.16,0,0,0,.18-2.42c-3.49-4.41-18-23.17-19.24-32.13-.18-1.3,1.14-3,2.73-3.5,15.83-5.33,26.42-12.76,32.37-16.78a3.22,3.22,0,0,1,2.17-.62c9.68,1.53,20.59,16.78,26.89,27,3.4,5.48,2.43,13.64-2.54,21.48L330.66,223c-8.54,13.47-19.34,17.88-34,23.43s-47.53,16.68-61.07,20c-9.24,2.27-16.27,3.07-21.93,2.28-9.1-1.28-14.63-6.7-20-16.82l-17.85-33.79c-2.75-5.2-2-12.48,2.13-19.66L216.41,131A41.35,41.35,0,0,1,234,114.74c19.56-9.4,60-27.36,92-31.71A83.12,83.12,0,0,1,348.37,83Z"/><g class="cls-2"><g class="cls-50"><g class="cls-2"><path class="cls-32" d="M307.46,262.71l24.66,28.71c.16.18.31.37.47.57l-24.65-28.71-.48-.57"/><path class="cls-33" d="M307.94,263.28,332.59,292c.43.54.86,1.12,1.27,1.74L309.21,265c-.41-.62-.84-1.2-1.27-1.74"/><path class="cls-34" d="M309.21,265l24.65,28.71c.43.65.85,1.35,1.26,2.09l-24.65-28.71c-.41-.74-.83-1.44-1.26-2.09"/><path class="cls-30" d="M310.47,267.11l24.65,28.71c.43.79.85,1.64,1.24,2.54l-24.65-28.71c-.4-.9-.81-1.75-1.24-2.54"/><path class="cls-29" d="M311.71,269.65l24.65,28.71c.44,1,.85,2.06,1.24,3.19l-24.66-28.71c-.38-1.13-.79-2.2-1.23-3.19"/><path class="cls-28" d="M312.94,272.84l24.66,28.71c.43,1.28.83,2.65,1.2,4.12L314.15,277c-.37-1.47-.77-2.84-1.21-4.12"/><path class="cls-27" d="M314.15,277l24.65,28.71q.4,1.65.75,3.48L314.9,280.44q-.34-1.83-.75-3.48"/></g></g></g><g class="cls-2"><g class="cls-51"><g class="cls-2"><path class="cls-42" d="M314.9,280.44l24.65,28.71c-.89-.46-17.8-9.14-33.91-11.41a37.46,37.46,0,0,0-12.84.1,17.14,17.14,0,0,1-5.61.52,2.49,2.49,0,0,1-1.6-.69L260.93,269a2.52,2.52,0,0,0,1.61.69,17.08,17.08,0,0,0,5.6-.52A37.52,37.52,0,0,1,281,269c16.11,2.27,33,11,33.91,11.41"/></g></g></g><path class="cls-43" d="M296.29,256.47c7.14,1,15.29,6.33,18.61,24C314,280,297.1,271.3,281,269a37.52,37.52,0,0,0-12.85.1,17.08,17.08,0,0,1-5.6.52c-3.26-.46-1.92-3.15,1-5.61s7.47-4.72,10.61-4.28a4.49,4.49,0,0,1,1,.25,13.71,13.71,0,0,0,2.92.79c4.47.62,5.52-2.2,5.58-2.35A23.24,23.24,0,0,1,296.29,256.47Z"/></g><text class="cls-52" transform="translate(210.19 427.49)">Pic<tspan class="cls-53" x="113.96" y="0">t</tspan><tspan x="143.47" y="0">orial Mark</tspan></text></svg>