<svg id="Layer_1" data-name="Layer 1" xmlns="http://www.w3.org/2000/svg" viewBox="0 0 936 452"><defs><style>.cls-1{font-size:211.77px;}.cls-1,.cls-11{fill:#7d2618;}.cls-1,.cls-10{font-family:FranklinGothic-Heavy, Franklin Gothic Heavy;}.cls-2{isolation:isolate;}.cls-3{fill:#858789;}.cls-4{fill:#6a1d0e;}.cls-5{fill:#782416;}.cls-6{fill:#722113;}.cls-7{fill:#cccece;}.cls-8{fill:#afb1b2;}.cls-9{fill:none;stroke:#894d48;stroke-miterlimit:10;stroke-width:6px;}.cls-10{font-size:40.33px;fill:#8a554f;}.cls-11{font-size:80px;font-family:Montserrat-Regular, Montserrat;letter-spacing:-0.05em;}.cls-12{letter-spacing:-0.03em;}</style></defs><title>banners-01</title><text class="cls-1" transform="translate(415.09 206.2)">ABC</text><g class="cls-2"><polygon class="cls-3" points="266.36 117.52 293.38 136.76 178.53 121.38 151.52 102.15 266.36 117.52"/><polygon class="cls-4" points="189.63 283.78 216.64 303.01 120.49 290.14 93.47 270.9 189.63 283.78"/><polygon class="cls-5" points="241.05 134.27 268.06 153.5 216.64 303.01 189.63 283.78 241.05 134.27"/><polygon class="cls-6" points="241.05 134.27 189.63 283.78 93.47 270.9 144.9 121.4 241.05 134.27"/><polygon class="cls-3" points="279.83 295.86 306.85 315.09 235.33 305.51 208.31 286.28 279.83 295.86"/><polygon class="cls-7" points="355.19 76.76 382.21 95.99 306.85 315.09 279.83 295.86 355.19 76.76"/><polygon class="cls-8" points="355.19 76.76 279.83 295.86 208.31 286.28 266.36 117.52 151.52 102.15 168.83 51.8 355.19 76.76"/></g><line class="cls-9" x1="404.98" y1="248.54" x2="829.4" y2="248.54"/><text class="cls-10" transform="translate(420.79 303.93)">Combination/Hybrid</text><text class="cls-11" transform="translate(115.35 415.39)">C<tspan class="cls-12" x="51.97" y="0">ombination Mark</tspan></text></svg>