<svg id="Layer_1" data-name="Layer 1" xmlns="http://www.w3.org/2000/svg" viewBox="0 0 936 452"><defs><style>.cls-1,.cls-16{fill:#7d2618;}.cls-2{font-size:104.26px;font-family:BerkshireSwash-Regular, Berkshire Swash;}.cls-10,.cls-11,.cls-12,.cls-13,.cls-14,.cls-2,.cls-6,.cls-7,.cls-8,.cls-9{fill:#e5e5e5;}.cls-3{letter-spacing:-0.01em;}.cls-4{letter-spacing:-0.02em;}.cls-5{fill:#7c2618;}.cls-6{font-size:140.01px;}.cls-10,.cls-11,.cls-12,.cls-13,.cls-6,.cls-7,.cls-8,.cls-9{font-family:Stark, Stark;}.cls-7{font-size:94px;}.cls-8{font-size:55px;}.cls-9{font-size:101px;}.cls-10{font-size:138.34px;}.cls-11{font-size:97.31px;}.cls-12{font-size:68.48px;}.cls-13{font-size:67.77px;}.cls-15{fill:none;stroke:#7d2618;stroke-miterlimit:10;stroke-width:10px;}.cls-16{font-size:80px;font-family:Montserrat-Regular, Montserrat;letter-spacing:-0.09em;}.cls-17{letter-spacing:-0.03em;}</style></defs><title>banners-01</title><path class="cls-1" d="M214.56,153.32a15,15,0,0,1-5.11-.76,9.78,9.78,0,0,1-4.3-2.91,8.66,8.66,0,0,1-2-4.87,15.69,15.69,0,0,1,0-2.05c0-.12,0-.24,0-.36l.78-6.54q-3.12,4.06-5.52,7.12c-1.66,2.11-2.94,3.71-3.81,4.74a15.94,15.94,0,0,1-3.2,2.95,15.25,15.25,0,0,1-3.37,1.75,15,15,0,0,1-3.54.81c-.86.08-1.73.12-2.58.12a15,15,0,0,1-5.12-.76,9.73,9.73,0,0,1-4.29-2.9,8.76,8.76,0,0,1-2-4.64,12.79,12.79,0,0,1-.07-2.29c0-.14,0-.27,0-.4l4.28-34.17c-.5.36-1,.7-1.54,1a19.41,19.41,0,0,1-4.85,2,18.67,18.67,0,0,1-4.79.67,13.81,13.81,0,0,1-6.84-1.63,11.17,11.17,0,0,1-4.76-5.12A12.81,12.81,0,0,1,151,98.82a18.79,18.79,0,0,1,1.51-5.92,35.15,35.15,0,0,1,6.72-10.41A40.89,40.89,0,0,1,178.37,71a39.72,39.72,0,0,1,10.3-1.42c4.35,0,7.75.77,10.39,2.35a13.85,13.85,0,0,1,6,6.84,18.84,18.84,0,0,1,1.25,7.68c-.08,2-.23,4-.46,6l-1.67,14.41.23-.33c1.29-1.8,2.54-3.61,3.75-5.4l1.59-13.37a11.42,11.42,0,0,1,2.82-6.25A15.3,15.3,0,0,1,217,78.12a19.52,19.52,0,0,1,4.9-1.73,23.91,23.91,0,0,1,4.9-.51,24.58,24.58,0,0,1,3.6.23,11.62,11.62,0,0,1,4.2,1.38,8.64,8.64,0,0,1,3.88,4.6,10.75,10.75,0,0,1,.49,5l-2.25,19.73,1-1.36c1.66-2.34,3.24-4.68,4.7-6.94s2.73-4.36,3.87-6.39a53,53,0,0,0,2.62-5.23,24.82,24.82,0,0,0,1.41-4,13.56,13.56,0,0,0,.35-2.28c0-.91,0-1.44,0-1.73a10,10,0,0,1,.78-4.48,10.86,10.86,0,0,1,3-4.08,14.47,14.47,0,0,1,3.23-2.07A15.14,15.14,0,0,1,261.08,67a15.61,15.61,0,0,1,3.17-.35A12.51,12.51,0,0,1,270.2,68a8.32,8.32,0,0,1,4.48,8c0,.1,0,.2,0,.3a16.42,16.42,0,0,1-.41,2.41c-.16.69-.35,1.35-.56,2s-.45,1.28-.7,1.87l-.43,1a50.45,50.45,0,0,1-3.35,6.23c-1.43,2.35-3.18,5-5.18,8s-4.16,6-6.49,9.31-4.7,6.57-7.19,10-4.89,6.66-7.26,9.83-4.64,6.17-6.72,8.89-3.89,5.08-5.47,7.13-2.77,3.59-3.59,4.61a14.8,14.8,0,0,1-3.08,3.05,14.2,14.2,0,0,1-3.45,1.84,15,15,0,0,1-3.58.81C216.33,153.28,215.44,153.32,214.56,153.32Z"/><path class="cls-1" d="M261.33,153.32a23.75,23.75,0,0,1-10.39-2.21,17,17,0,0,1-7.83-7.43,21.24,21.24,0,0,1-2.24-11.07,37.13,37.13,0,0,1,3.3-13,51.11,51.11,0,0,1,7.28-12.31,48.32,48.32,0,0,1,9.27-8.88,40.28,40.28,0,0,1,10.6-5.53,34.47,34.47,0,0,1,11-1.88,25.84,25.84,0,0,1,10.2,2,16.86,16.86,0,0,1,8.09,7.07,20.15,20.15,0,0,1,2.47,10.94,36.44,36.44,0,0,1-3.28,13,52.83,52.83,0,0,1-7.3,12.39,51.06,51.06,0,0,1-9.33,9.12,41.29,41.29,0,0,1-10.67,5.8A33.18,33.18,0,0,1,261.33,153.32ZM273,119.5c-.69,1.46-1.37,3-2,4.5C271.7,122.51,272.37,121,273,119.5Z"/><path class="cls-1" d="M299.57,153.32a14.4,14.4,0,0,1-6.55-1.26,9.72,9.72,0,0,1-4.47-4.22,8.88,8.88,0,0,1-.83-5.9,13.35,13.35,0,0,1,.78-2.6l13.05-30.76a6.53,6.53,0,0,1-2.09-2.69l-.48-1.17a6.48,6.48,0,0,1,2.6-8c1.1-.67,2.31-1.35,3.6-2a37.68,37.68,0,0,1,4.27-1.85,37.11,37.11,0,0,1,4.62-1.31,24.91,24.91,0,0,1,5.29-.57,14.2,14.2,0,0,1,5.87,1.1A10.69,10.69,0,0,1,329,94.82c.92-.58,1.84-1.11,2.74-1.58a24.65,24.65,0,0,1,3.65-1.53,14.37,14.37,0,0,1,4.42-.74c5.69,0,8.1,3.42,8.88,4.89,1.45,2.75,1.41,6-.11,9.56a30.49,30.49,0,0,1-2,3.86,41.45,41.45,0,0,1-3,4.25A6.49,6.49,0,0,1,338.5,116h-1.31a6.48,6.48,0,0,1-5.07-2.45,2,2,0,0,1-.17-.23c-.42.17-.83.35-1.25.55-.94.45-1.88,1-2.77,1.47l-1.06.63-12.1,28.51a16.2,16.2,0,0,1-1.32,2.44,12.72,12.72,0,0,1-3.26,3.34,16,16,0,0,1-4.47,2.18A19.69,19.69,0,0,1,299.57,153.32Z"/><path class="cls-1" d="M345.91,153.32a24.44,24.44,0,0,1-9.22-1.76,16.69,16.69,0,0,1-8.05-6.8A20.35,20.35,0,0,1,326,133.64c.06-4,1.21-8.59,3.49-14a52.66,52.66,0,0,1,7-12,49.83,49.83,0,0,1,8.93-8.91,40.43,40.43,0,0,1,10.2-5.73A30.68,30.68,0,0,1,366.41,91c.57,0,1.11,0,1.63,0a14.27,14.27,0,0,0-.53-4.71,3.08,3.08,0,0,0-1-1.6,2.73,2.73,0,0,0-1.37-.28,6.85,6.85,0,0,0-1.89.25,15.15,15.15,0,0,0-2.14.74,17.86,17.86,0,0,0-1.71.88l-1.3.79a6.47,6.47,0,0,1-9.63-3.51L348,81.94a6.49,6.49,0,0,1,2-7,36.18,36.18,0,0,1,4.76-3.33,38.33,38.33,0,0,1,5.4-2.61,37.87,37.87,0,0,1,5.6-1.69,27.57,27.57,0,0,1,5.85-.67c6.05,0,11,1.47,14.83,4.35A20.3,20.3,0,0,1,394,83.41c1,4.59.85,9.81-.35,16a96,96,0,0,1-6,18.66,82.84,82.84,0,0,1-8,14.75,58.13,58.13,0,0,1-9.74,11,40.59,40.59,0,0,1-11.41,7.07A33.83,33.83,0,0,1,345.91,153.32ZM359,118.44q-1.35,2.7-2.79,6.06C357.07,122.77,358,120.76,359,118.44Z"/><path class="cls-1" d="M436.22,153.32a15.17,15.17,0,0,1-5.85-1,10.92,10.92,0,0,1-4.7-3.62,9.56,9.56,0,0,1-1.26-2.33l-.37.6a12.65,12.65,0,0,1-3.25,3.33,16.06,16.06,0,0,1-4.53,2.2,20,20,0,0,1-6.15.85,14.45,14.45,0,0,1-6.55-1.26,9.47,9.47,0,0,1-4.5-4.35c-.09-.18-.17-.36-.25-.54a12.7,12.7,0,0,1-3.1,3.11,15.91,15.91,0,0,1-4.47,2.18,19.69,19.69,0,0,1-6.15.86,14.45,14.45,0,0,1-6.55-1.26,9.77,9.77,0,0,1-4.47-4.22,8.88,8.88,0,0,1-.83-5.9,13.35,13.35,0,0,1,.78-2.6l13.06-30.76a6.45,6.45,0,0,1-2.09-2.69l-.49-1.17a6.5,6.5,0,0,1,2.6-8c1.11-.67,2.32-1.35,3.6-2A37.06,37.06,0,0,1,395,92.85a36.48,36.48,0,0,1,4.61-1.31,25,25,0,0,1,5.29-.57c3.58,0,6.31.79,8.36,2.43a10.87,10.87,0,0,1,1.7,1.69l1.18-.62c1.21-.61,2.45-1.17,3.67-1.66a30.53,30.53,0,0,1,4-1.29,19.18,19.18,0,0,1,4.48-.55,13.91,13.91,0,0,1,7.77,2A12.39,12.39,0,0,1,439,95.63c.68-.38,1.39-.76,2.12-1.14,1.22-.62,2.48-1.19,3.74-1.69a31.19,31.19,0,0,1,4-1.27,19,19,0,0,1,4.48-.56,13.77,13.77,0,0,1,7.83,2.11,11.12,11.12,0,0,1,4.57,6.22,14.76,14.76,0,0,1,.31,6.55,23.87,23.87,0,0,1-1.64,5.61L454.84,134a6.06,6.06,0,0,1,1,1.09l.71,1a6.49,6.49,0,0,1-.89,8.56c-.87.79-1.93,1.66-3.14,2.57a37.65,37.65,0,0,1-4.26,2.76,29.67,29.67,0,0,1-5.36,2.31A21.68,21.68,0,0,1,436.22,153.32Z"/><path class="cls-1" d="M484.53,153.32a12.11,12.11,0,0,1-8.8-3.36c-.92.48-1.83.91-2.72,1.28a28.14,28.14,0,0,1-5.11,1.58,25.11,25.11,0,0,1-4.88.5,17.54,17.54,0,0,1-6.4-1.14,12.42,12.42,0,0,1-5.88-4.67,13.23,13.23,0,0,1-2.08-7.63,22.4,22.4,0,0,1,2-8.41,27.14,27.14,0,0,1,6.13-9.13,34.55,34.55,0,0,1,7.84-5.63l.56-.29c-.11-.19-.21-.39-.31-.6-1.42-2.93-1.34-6.32.26-10.08a19.72,19.72,0,0,1,5.31-7.27,27.78,27.78,0,0,1,6.95-4.37,35.33,35.33,0,0,1,7.68-2.38A40.37,40.37,0,0,1,492.7,91,32.59,32.59,0,0,1,501,92a17.36,17.36,0,0,1,7.6,4.1,13.9,13.9,0,0,1,4.15,8.17,18.49,18.49,0,0,1-1.66,9.93l-8.51,20a5.87,5.87,0,0,1,.83.89l.75,1a6.47,6.47,0,0,1-.87,8.8c-.82.73-1.78,1.53-2.85,2.37a31.73,31.73,0,0,1-4.19,2.78,28.11,28.11,0,0,1-5.18,2.24A21.18,21.18,0,0,1,484.53,153.32Z"/><path class="cls-1" d="M510.26,153.32a14.4,14.4,0,0,1-6.55-1.26,9.72,9.72,0,0,1-4.47-4.22,8.88,8.88,0,0,1-.83-5.9,12.7,12.7,0,0,1,.78-2.6l13.05-30.76a6.43,6.43,0,0,1-2.08-2.69l-.49-1.17a6.48,6.48,0,0,1,2.6-8c1.1-.67,2.31-1.35,3.6-2a35.7,35.7,0,0,1,8.89-3.16,24.84,24.84,0,0,1,5.29-.57,14.2,14.2,0,0,1,5.87,1.1,10.69,10.69,0,0,1,3.75,2.75c.92-.58,1.84-1.11,2.74-1.58a23.62,23.62,0,0,1,3.65-1.53,14.37,14.37,0,0,1,4.42-.74c5.69,0,8.1,3.42,8.88,4.89,1.45,2.75,1.41,6-.11,9.56a30.49,30.49,0,0,1-2,3.86,42,42,0,0,1-3,4.25,6.49,6.49,0,0,1-5.11,2.49h-1.31a6.48,6.48,0,0,1-5.07-2.45l-.18-.23c-.41.17-.82.35-1.24.55-.94.45-1.88,1-2.77,1.47l-1.06.63-12.1,28.51a15.47,15.47,0,0,1-1.33,2.44,12.52,12.52,0,0,1-3.25,3.34,16,16,0,0,1-4.48,2.18A19.58,19.58,0,0,1,510.26,153.32Z"/><path class="cls-1" d="M583.26,169.68a26.1,26.1,0,0,1-6.88-.89,17.85,17.85,0,0,1-6.89-3.64,22.69,22.69,0,0,1-5.06-6.26,35.29,35.29,0,0,1-3.34-8.71c-.22-.88-.43-1.8-.62-2.76a12.82,12.82,0,0,1-3.1,2.93,16.85,16.85,0,0,1-4.51,2.13,20.15,20.15,0,0,1-6.15.84,14.2,14.2,0,0,1-6.57-1.29,9.22,9.22,0,0,1-4.52-4.62,9,9,0,0,1-.5-5.64,13.44,13.44,0,0,1,.76-2.43l23.37-55.06a6.4,6.4,0,0,1-2.14-2.75l-.46-1.12a6.5,6.5,0,0,1,2.62-8c1.1-.67,2.29-1.34,3.54-2a35,35,0,0,1,4.34-1.87,37.45,37.45,0,0,1,4.61-1.31,24.84,24.84,0,0,1,5.29-.57,14.53,14.53,0,0,1,7.76,1.77,9.67,9.67,0,0,1,4.55,6,11.1,11.1,0,0,1-.21,5.93,26.93,26.93,0,0,1-1.08,3l-3.93,9.28.34-.13A23.08,23.08,0,0,1,592.85,91a12.59,12.59,0,0,1,8,2.45,11.69,11.69,0,0,1,4,5.63,13.11,13.11,0,0,1,.48,6,17.14,17.14,0,0,1-1.15,4.32,33.56,33.56,0,0,1-2.93,5.35,34.41,34.41,0,0,1-4.55,5.43,42.66,42.66,0,0,1-6.15,5,41.62,41.62,0,0,1-3.91,2.33A93.79,93.79,0,0,0,588,138.26a42.31,42.31,0,0,0,2.85,9.56,10.56,10.56,0,0,0,2.79,4,3.09,3.09,0,0,0,1.82.72c.15,0,.29-.08.43-.12l.12,0c.23-.08.49-.17.75-.28a6.49,6.49,0,0,1,8.92,5.22l.19,1.65a6.48,6.48,0,0,1-3.78,6.67c-1.12.5-2.26,1-3.39,1.44a32.54,32.54,0,0,1-4.31,1.37,41,41,0,0,1-5,.9A51.64,51.64,0,0,1,583.26,169.68Z"/><text class="cls-2" transform="matrix(0.92, 0, -0.39, 0.92, 136.95, 146.09)"><tspan class="cls-3">W</tspan><tspan x="108.79" y="0">o</tspan><tspan class="cls-4" x="162.19" y="0">r</tspan><tspan x="201.5" y="0">dma</tspan><tspan class="cls-3" x="391.08" y="0">r</tspan><tspan x="431.45" y="0">k</tspan></text><path class="cls-5" d="M362.26,331.24a10,10,0,0,1-10-10v-105a10,10,0,0,1,10-10h14a10,10,0,0,1,10,10v81h35.5a10,10,0,0,1,10,10v14a10,10,0,0,1-10,10Z"/><path class="cls-5" d="M382.28,302.52a10,10,0,0,1-10-10V222a10,10,0,0,1,10-10h40a10,10,0,0,1,10,10v9.4a10,10,0,0,1-10,10H401.68v1.15h11.15a10,10,0,0,1,10,10V262a10,10,0,0,1-10,10H401.68v1.14h20.55a10,10,0,0,1,10,10v9.4a10,10,0,0,1-10,10Z"/><path class="cls-5" d="M483.29,294.69a10,10,0,0,1-10-10V243.44a10,10,0,0,1,10-10h23.37a10,10,0,0,1,10,10v5.5a10,10,0,0,1-6,9.18,9.93,9.93,0,0,1,.53,3.19v5.5a9.94,9.94,0,0,1-.53,3.2,10,10,0,0,1,6,9.18v5.5a10,10,0,0,1-10,10Z"/><path class="cls-5" d="M424.62,322.38a10,10,0,0,1-10-10V256.73H401.9a10,10,0,0,1-10-10v-10.1a10,10,0,0,1,10-10h55.55a10,10,0,0,1,10,10v10.1a10,10,0,0,1-10,10H444.72v55.64a10,10,0,0,1-10,10Z"/><path class="cls-5" d="M461.15,327.38a10,10,0,0,1-10-10V237.46H430a10,10,0,0,1-10-10V213.62a10,10,0,0,1,10-10h76.08a10,10,0,0,1,10,10v13.84a10,10,0,0,1-10,10H485v79.91a10,10,0,0,1-10,10Z"/><path class="cls-5" d="M571.29,331a10,10,0,0,1-7.84-3.79l-21.92-27.71h-5.18V321a10,10,0,0,1-10,10h-14a10,10,0,0,1-10-10V216a10,10,0,0,1,10-10h42A46.67,46.67,0,0,1,591,281.75a46.23,46.23,0,0,1-11.69,10.6l17.84,22.47A10,10,0,0,1,589.35,331Zm-16.94-65.5a11.66,11.66,0,0,0,8.92-3.68,1.14,1.14,0,0,1,.11-.11,12.65,12.65,0,0,0,0-18.06,12.19,12.19,0,0,0-9-3.65h-18v25.5Z"/><path class="cls-5" d="M657.57,300.38a10,10,0,0,1-10-10v-35l-9.69,9.69a10,10,0,0,1-14.14,0l-9.69-9.69v35a10,10,0,0,1-10,10h-9.73a10,10,0,0,1-10-10v-73a10,10,0,0,1,10-10h9.73a10,10,0,0,1,7.07,2.93L630.81,230l19.69-19.69a10,10,0,0,1,7.07-2.93h9.73a10,10,0,0,1,10,10v73a10,10,0,0,1-10,10Z"/><path class="cls-5" d="M718.13,332.14a10,10,0,0,1-7.84-3.8l-4.18-5.28a10,10,0,0,1-10,9.08H689.3a10,10,0,0,1-10-10V270.78a10,10,0,0,1,10-10h20.54a27.94,27.94,0,0,1,21.95,45.31,29,29,0,0,1-2.55,2.84l5.55,7A10,10,0,0,1,727,332.14Zm-8.29-42.26c.46,0,.51-.05.7-.24l.11-.12a.83.83,0,0,0,.35-.8c0-.37,0-.44-.35-.8-.19-.19-.29-.29-.81-.29h-3.69v2.25Z"/><path class="cls-5" d="M722.73,273.52a10,10,0,0,1-9.19-6.06l-3.22-7.5h-11.8l-3.28,7.54a10,10,0,0,1-9.17,6h-7.38a10,10,0,0,1-9.18-14l22-50.82a10,10,0,0,1,9.18-6h7.39a10,10,0,0,1,9.17,6l22,50.83a10,10,0,0,1-9.18,14Z"/><path class="cls-5" d="M804.76,328.15a10,10,0,0,1-7.84-3.79L770.46,291l-.64.82v26.34a10,10,0,0,1-10,10h-14a10,10,0,0,1-10-10v-105a10,10,0,0,1,10-10h14a10,10,0,0,1,10,10V237l23.89-30.07a10,10,0,0,1,7.83-3.77h17.92a10,10,0,0,1,7.83,16.22l-35.1,44.17,38.46,48.38a10,10,0,0,1-7.83,16.23Z"/><path class="cls-5" d="M804.76,328.15a10,10,0,0,1-7.84-3.79L770.46,291l-.64.82v26.34a10,10,0,0,1-10,10h-14a10,10,0,0,1-10-10v-105a10,10,0,0,1,10-10h14a10,10,0,0,1,10,10V237l23.89-30.07a10,10,0,0,1,7.83-3.77h17.92a10,10,0,0,1,7.83,16.22l-35.1,44.17,38.46,48.38a10,10,0,0,1-7.83,16.23Z"/><path class="cls-5" d="M804.76,328.15a10,10,0,0,1-7.84-3.79L770.46,291l-.64.82v26.34a10,10,0,0,1-10,10h-14a10,10,0,0,1-10-10v-105a10,10,0,0,1,10-10h14a10,10,0,0,1,10,10V237l23.89-30.07a10,10,0,0,1,7.83-3.77h17.92a10,10,0,0,1,7.83,16.22l-35.1,44.17,38.46,48.38a10,10,0,0,1-7.83,16.23Z"/><rect class="cls-5" x="583.25" y="289.22" width="92.19" height="41.51" rx="10" ry="10"/><text class="cls-6" transform="translate(355.26 321.24)">L</text><text class="cls-7" transform="translate(377.58 292.52)">E</text><text class="cls-8" transform="translate(480.54 284.69)">E</text><text class="cls-9" transform="translate(396.85 312.37)">T</text><text class="cls-10" transform="translate(423.11 317.37)">T</text><text class="cls-6" transform="translate(505.35 321.04)">R</text><text class="cls-11" transform="translate(589.46 290.38)">M</text><text class="cls-12" transform="translate(685.87 322.14)">R</text><text class="cls-13" transform="translate(675.3 263.51)">A</text><text class="cls-6" transform="translate(738.82 318.15)">K</text><rect class="cls-14" x="593.25" y="299.23" width="72.19" height="21.5"/><line class="cls-15" x1="138.73" y1="180.85" x2="841.15" y2="180.85"/><text class="cls-16" transform="translate(260.7 427.44)">W<tspan class="cls-17" x="75.96" y="0">ord Mark</tspan></text></svg>