<?xml version="1.0" encoding="utf-8"?>
<!-- Generator: Adobe Illustrator 22.1.0, SVG Export Plug-In . SVG Version: 6.00 Build 0)  -->
<svg version="1.1" id="Layer_1" xmlns="http://www.w3.org/2000/svg" xmlns:xlink="http://www.w3.org/1999/xlink" x="0px" y="0px"
	 viewBox="0 0 437 97.9" style="enable-background:new 0 0 437 97.9;" xml:space="preserve">
<style type="text/css">
	.st0{fill:#FFFFFF;}
	.st1{font-family:'Stark';}
	.st2{font-size:85.42px;}
	.st3{fill:#B2B2B2;}
	.st4{letter-spacing:-3;}
	.st5{fill:#831E19;}
	.st6{fill:#4FAA87;}
</style>
<text id="XMLID_89_" transform="matrix(1 0 0 1 159.57 74.7422)"><tspan x="0" y="0" class="st0 st1 st2">art</tspan><tspan x="104.4" y="0" class="st3 st1 st2">i</tspan><tspan x="123.3" y="0" class="st3 st1 st2 st4">me</tspan><tspan x="253.2" y="0" class="st3 st1 st2">r</tspan></text>
<g id="XMLID_87_">
	<path class="st0" d="M79.6,92.6c-5.1,0-11.9,0-13.7-5.3c-2,0-4,0.1-6,0.1c-21.1,0-43.8-3.2-48.3-40.2c-0.2,0-0.5,0-0.7,0
		c-3.5,0-6.5-2.2-8.5-6.3c-3.2-6.6-3.6-17.6,1.3-24L4.4,16l1-0.1c0.9-0.1,1.8-0.2,2.6-0.2c5.6,0,9.7,2.6,11.7,7.2
		C38.9,5.3,66.7,5.3,78.9,5.3h1.3c12.2,0,40.1,0,59.2,17.7c2-4.6,6.1-7.2,11.7-7.2c0.8,0,1.7,0.1,2.6,0.2l1,0.1l0.6,0.8
		c5,6.4,4.6,17.5,1.3,24c-2,4.1-5,6.3-8.5,6.3c0,0,0,0,0,0c-0.2,0-0.5,0-0.7,0c-4.5,37.1-27.2,40.2-48.3,40.2c-2,0-4,0-6-0.1
		C91.5,92.6,84.7,92.6,79.6,92.6z"/>
	<path class="st5" d="M153.5,18.4c-6.3-0.8-11.6,1.6-12.7,9.4c-18.6-20.1-47.9-20-61.2-20c-13.3,0-42.6-0.2-61.2,20
		c-1.1-7.8-6.4-10.2-12.7-9.4c-6.8,8.8-2.1,30.6,8.1,25.6c3.9,42.3,30.1,41.2,54.1,40.8c0.3,4.4,3.7,5.3,11.7,5.3
		c8,0,11.4-0.9,11.7-5.3c24.1,0.4,50.3,1.5,54.1-40.8C155.6,48.9,160.3,27.2,153.5,18.4z"/>
</g>
<g id="XMLID_85_">
	<path class="st0" d="M125.1,25.8c-3.7-2.6-8.3-3.6-12.8-3.7c-4.5-0.1-9,0.8-13,2.7c-4.1,1.8-7.7,4.7-10.3,8.3
		c-2.6,3.6-4,8.1-4.7,12.5c0.2-2.3,0.6-4.5,1.2-6.7c0.7-2.2,1.7-4.3,3-6.2c2.5-3.8,6.3-6.8,10.4-8.7c4.2-1.9,8.8-2.7,13.4-2.5
		c2.3,0.1,4.6,0.5,6.7,1.1C121.3,23.3,123.4,24.3,125.1,25.8z"/>
</g>
<path id="XMLID_84_" class="st0" d="M89.4,68.6c-11.2-33.5,18.3-48.5,38.1-37.1C151.6,62.8,114.4,96.2,89.4,68.6z"/>
<path id="XMLID_82_" class="st6" d="M97.7,62.7c-6.9-20.7,11.3-29.9,23.5-22.9C136.1,59.1,113.2,79.8,97.7,62.7z"/>
<path id="XMLID_80_" class="st0" d="M100.3,60.9c-5.6-16.7,9.1-24.1,19-18.4C131.3,58,112.8,74.7,100.3,60.9z"/>
<g id="XMLID_78_">
	<path class="st0" d="M34.1,25.8c1.8-1.4,3.9-2.4,6-3.1c2.2-0.7,4.5-1,6.7-1.1c4.6-0.2,9.2,0.7,13.4,2.5c4.2,1.9,7.9,4.9,10.4,8.7
		c1.3,1.9,2.3,4,3,6.2c0.7,2.2,1.1,4.4,1.2,6.7c-0.6-4.5-2-8.9-4.7-12.5c-2.6-3.7-6.2-6.5-10.3-8.3c-4.1-1.9-8.6-2.7-13-2.7
		C42.4,22.2,37.8,23.2,34.1,25.8z"/>
</g>
<path id="XMLID_77_" class="st0" d="M69.8,68.6C81,35.1,51.5,20.1,31.7,31.5C7.6,62.8,44.8,96.2,69.8,68.6z"/>
<path id="XMLID_75_" class="st6" d="M61.5,62.7C68.4,42.1,50.2,32.8,38,39.9C23.1,59.1,46,79.8,61.5,62.7z"/>
<path id="XMLID_73_" class="st0" d="M58.9,60.9c5.6-16.7-9.1-24.1-19-18.4C27.9,58,46.4,74.7,58.9,60.9z"/>
</svg>
